<?xml version="1.0" encoding="UTF-8" standalone="no"?>
<!DOCTYPE svg PUBLIC "-//W3C//DTD SVG 1.1//EN"
 "http://www.w3.org/Graphics/SVG/1.1/DTD/svg11.dtd">
<!-- Generated by graphviz version 5.0.0 (20220707.1540)
 -->
<!-- Title: UmlClassDiagram Pages: 1 -->
<svg width="1217pt" height="1279pt"
 viewBox="0.00 0.00 1216.91 1279.00" xmlns="http://www.w3.org/2000/svg" xmlns:xlink="http://www.w3.org/1999/xlink">
<g id="graph0" class="graph" transform="scale(1 1) rotate(0) translate(4 1275)">
<title>UmlClassDiagram</title>
<polygon fill="white" stroke="transparent" points="-4,4 -4,-1275 1212.91,-1275 1212.91,4 -4,4"/>
<g id="clust1" class="cluster">
<title>cluster_0</title>
<polygon fill="white" stroke="black" points="18.91,-8 18.91,-1263 1200.91,-1263 1200.91,-8 18.91,-8"/>
<text text-anchor="middle" x="609.91" y="-16.2" font-family="Times,serif" font-size="14.00">src</text>
</g>
<!-- 0 -->
<g id="node1" class="node">
<title>0</title>
<polygon fill="#f2f2f2" stroke="black" points="553.63,-870.7 553.63,-987.5 690.18,-987.5 690.18,-870.7 553.63,-870.7"/>
<text text-anchor="middle" x="621.91" y="-970.9" font-family="Times,serif" font-size="14.00">Constants</text>
<text text-anchor="middle" x="621.91" y="-954.1" font-family="Times,serif" font-size="14.00">src/Gas.sol</text>
<polyline fill="none" stroke="black" points="553.63,-945.9 690.18,-945.9 "/>
<text text-anchor="start" x="561.63" y="-929.3" font-family="Times,serif" font-size="14.00">Public:</text>
<text text-anchor="start" x="561.63" y="-912.5" font-family="Times,serif" font-size="14.00"> &#160;&#160;tradeFlag: uint8</text>
<text text-anchor="start" x="561.63" y="-895.7" font-family="Times,serif" font-size="14.00"> &#160;&#160;basicFlag: uint8</text>
<text text-anchor="start" x="561.63" y="-878.9" font-family="Times,serif" font-size="14.00"> &#160;&#160;dividendFlag: uint8</text>
</g>
<!-- 2 -->
<g id="node2" class="node">
<title>2</title>
<polygon fill="#f2f2f2" stroke="black" points="27.33,-1104.1 27.33,-1254.5 142.48,-1254.5 142.48,-1104.1 27.33,-1104.1"/>
<text text-anchor="middle" x="84.91" y="-1237.9" font-family="Times,serif" font-size="14.00">&lt;&lt;Enum&gt;&gt;</text>
<text text-anchor="middle" x="84.91" y="-1221.1" font-family="Times,serif" font-size="14.00">PaymentType</text>
<text text-anchor="middle" x="84.91" y="-1204.3" font-family="Times,serif" font-size="14.00">src/Gas.sol</text>
<polyline fill="none" stroke="black" points="27.33,-1196.1 142.48,-1196.1 "/>
<text text-anchor="start" x="35.33" y="-1179.5" font-family="Times,serif" font-size="14.00">Unknown: 0</text>
<text text-anchor="start" x="35.33" y="-1162.7" font-family="Times,serif" font-size="14.00">BasicPayment: 1</text>
<text text-anchor="start" x="35.33" y="-1145.9" font-family="Times,serif" font-size="14.00">Refund: 2</text>
<text text-anchor="start" x="35.33" y="-1129.1" font-family="Times,serif" font-size="14.00">Dividend: 3</text>
<text text-anchor="start" x="35.33" y="-1112.3" font-family="Times,serif" font-size="14.00">GroupPayment: 4</text>
</g>
<!-- 1 -->
<g id="node6" class="node">
<title>1</title>
<polygon fill="#f2f2f2" stroke="black" points="137.2,-41.3 137.2,-754.1 802.62,-754.1 802.62,-41.3 137.2,-41.3"/>
<text text-anchor="middle" x="469.91" y="-737.5" font-family="Times,serif" font-size="14.00">GasContract</text>
<text text-anchor="middle" x="469.91" y="-720.7" font-family="Times,serif" font-size="14.00">src/Gas.sol</text>
<polyline fill="none" stroke="black" points="137.2,-712.5 802.62,-712.5 "/>
<text text-anchor="start" x="145.2" y="-695.9" font-family="Times,serif" font-size="14.00">Public:</text>
<text text-anchor="start" x="145.2" y="-679.1" font-family="Times,serif" font-size="14.00"> &#160;&#160;totalSupply: uint256</text>
<text text-anchor="start" x="145.2" y="-662.3" font-family="Times,serif" font-size="14.00"> &#160;&#160;paymentCounter: uint256</text>
<text text-anchor="start" x="145.2" y="-645.5" font-family="Times,serif" font-size="14.00"> &#160;&#160;tradePercent: uint256</text>
<text text-anchor="start" x="145.2" y="-628.7" font-family="Times,serif" font-size="14.00"> &#160;&#160;tradeMode: uint256</text>
<text text-anchor="start" x="145.2" y="-611.9" font-family="Times,serif" font-size="14.00"> &#160;&#160;payments: mapping(address=&gt;Payment[])</text>
<text text-anchor="start" x="145.2" y="-595.1" font-family="Times,serif" font-size="14.00"> &#160;&#160;whitelist: mapping(address=&gt;uint256)</text>
<text text-anchor="start" x="145.2" y="-578.3" font-family="Times,serif" font-size="14.00"> &#160;&#160;balances: mapping(address=&gt;uint256)</text>
<text text-anchor="start" x="145.2" y="-561.5" font-family="Times,serif" font-size="14.00"> &#160;&#160;administrators: address[5]</text>
<text text-anchor="start" x="145.2" y="-544.7" font-family="Times,serif" font-size="14.00"> &#160;&#160;contractOwner: address</text>
<text text-anchor="start" x="145.2" y="-527.9" font-family="Times,serif" font-size="14.00"> &#160;&#160;isReady: bool</text>
<text text-anchor="start" x="145.2" y="-511.1" font-family="Times,serif" font-size="14.00"> &#160;&#160;defaultPayment: PaymentType</text>
<text text-anchor="start" x="145.2" y="-494.3" font-family="Times,serif" font-size="14.00"> &#160;&#160;paymentHistory: History[]</text>
<text text-anchor="start" x="145.2" y="-477.5" font-family="Times,serif" font-size="14.00"> &#160;&#160;wasLastOdd: uint256</text>
<text text-anchor="start" x="145.2" y="-460.7" font-family="Times,serif" font-size="14.00"> &#160;&#160;isOddWhitelistUser: mapping(address=&gt;uint256)</text>
<text text-anchor="start" x="145.2" y="-443.9" font-family="Times,serif" font-size="14.00"> &#160;&#160;whiteListStruct: mapping(address=&gt;ImportantStruct)</text>
<polyline fill="none" stroke="black" points="137.2,-435.7 802.62,-435.7 "/>
<text text-anchor="start" x="145.2" y="-419.1" font-family="Times,serif" font-size="14.00">External:</text>
<text text-anchor="start" x="145.2" y="-402.3" font-family="Times,serif" font-size="14.00"> &#160;&#160;&#160;&lt;&lt;payable&gt;&gt; null()</text>
<text text-anchor="start" x="145.2" y="-385.5" font-family="Times,serif" font-size="14.00"> &#160;&#160;&#160;&lt;&lt;payable&gt;&gt; null()</text>
<text text-anchor="start" x="145.2" y="-368.7" font-family="Times,serif" font-size="14.00">Public:</text>
<text text-anchor="start" x="145.2" y="-351.9" font-family="Times,serif" font-size="14.00"> &#160;&#160;&#160;&lt;&lt;payable&gt;&gt; getPaymentHistory(): (paymentHistory_: History[])</text>
<text text-anchor="start" x="145.2" y="-335.1" font-family="Times,serif" font-size="14.00"> &#160;&#160;&#160;&lt;&lt;event&gt;&gt; AddedToWhitelist(userAddress: address, tier: uint256)</text>
<text text-anchor="start" x="145.2" y="-318.3" font-family="Times,serif" font-size="14.00"> &#160;&#160;&#160;&lt;&lt;event&gt;&gt; supplyChanged(address, uint256)</text>
<text text-anchor="start" x="145.2" y="-301.5" font-family="Times,serif" font-size="14.00"> &#160;&#160;&#160;&lt;&lt;event&gt;&gt; Transfer(recipient: address, amount: uint256)</text>
<text text-anchor="start" x="145.2" y="-284.7" font-family="Times,serif" font-size="14.00"> &#160;&#160;&#160;&lt;&lt;event&gt;&gt; PaymentUpdated(admin: address, ID: uint256, amount: uint256, recipient: string)</text>
<text text-anchor="start" x="145.2" y="-267.9" font-family="Times,serif" font-size="14.00"> &#160;&#160;&#160;&lt;&lt;event&gt;&gt; WhiteListTransfer(address)</text>
<text text-anchor="start" x="145.2" y="-251.1" font-family="Times,serif" font-size="14.00"> &#160;&#160;&#160;&lt;&lt;modifier&gt;&gt; onlyAdminOrOwner()</text>
<text text-anchor="start" x="145.2" y="-234.3" font-family="Times,serif" font-size="14.00"> &#160;&#160;&#160;&lt;&lt;modifier&gt;&gt; checkIfWhiteListed(sender: address)</text>
<text text-anchor="start" x="145.2" y="-217.5" font-family="Times,serif" font-size="14.00"> &#160;&#160;&#160;constructor(_admins: address[], _totalSupply: uint256)</text>
<text text-anchor="start" x="145.2" y="-200.7" font-family="Times,serif" font-size="14.00"> &#160;&#160;&#160;checkForAdmin(_user: address): (admin_: bool)</text>
<text text-anchor="start" x="145.2" y="-183.9" font-family="Times,serif" font-size="14.00"> &#160;&#160;&#160;balanceOf(_user: address): (balance_: uint256)</text>
<text text-anchor="start" x="145.2" y="-167.1" font-family="Times,serif" font-size="14.00"> &#160;&#160;&#160;getTradingMode(): (mode_: bool)</text>
<text text-anchor="start" x="145.2" y="-150.3" font-family="Times,serif" font-size="14.00"> &#160;&#160;&#160;addHistory(_updateAddress: address, _tradeMode: bool): (status_: bool, tradeMode_: bool)</text>
<text text-anchor="start" x="145.2" y="-133.5" font-family="Times,serif" font-size="14.00"> &#160;&#160;&#160;getPayments(_user: address): (payments_: Payment[])</text>
<text text-anchor="start" x="145.2" y="-116.7" font-family="Times,serif" font-size="14.00"> &#160;&#160;&#160;transfer(_recipient: address, _amount: uint256, _name: string): (status_: bool)</text>
<text text-anchor="start" x="145.2" y="-99.9" font-family="Times,serif" font-size="14.00"> &#160;&#160;&#160;updatePayment(_user: address, _ID: uint256, _amount: uint256, _type: PaymentType) &lt;&lt;onlyAdminOrOwner&gt;&gt;</text>
<text text-anchor="start" x="145.2" y="-83.1" font-family="Times,serif" font-size="14.00"> &#160;&#160;&#160;addToWhitelist(_userAddrs: address, _tier: uint256) &lt;&lt;onlyAdminOrOwner&gt;&gt;</text>
<text text-anchor="start" x="145.2" y="-66.3" font-family="Times,serif" font-size="14.00"> &#160;&#160;&#160;whiteTransfer(_recipient: address, _amount: uint256) &lt;&lt;checkIfWhiteListed&gt;&gt;</text>
<text text-anchor="start" x="145.2" y="-49.5" font-family="Times,serif" font-size="14.00"> &#160;&#160;&#160;getPaymentStatus(sender: address): (bool, uint256)</text>
</g>
<!-- 2&#45;&gt;1 -->
<g id="edge2" class="edge">
<title>2&#45;&gt;1</title>
<path fill="none" stroke="black" d="M57.5,-1103.97C53.18,-1092.06 49.36,-1079.67 46.91,-1067.6 22.36,-946.96 -2.96,-903.16 46.91,-790.6 67.27,-744.64 95.98,-701.76 128.97,-662.51"/>
<polygon fill="black" stroke="black" points="129.18,-662.25 130.04,-655.09 136.98,-653.13 136.12,-660.29 129.18,-662.25"/>
</g>
<!-- 3 -->
<g id="node3" class="node">
<title>3</title>
<polygon fill="#f2f2f2" stroke="black" points="46.85,-837.1 46.85,-1021.1 224.97,-1021.1 224.97,-837.1 46.85,-837.1"/>
<text text-anchor="middle" x="135.91" y="-1004.5" font-family="Times,serif" font-size="14.00">&lt;&lt;Struct&gt;&gt;</text>
<text text-anchor="middle" x="135.91" y="-987.7" font-family="Times,serif" font-size="14.00">Payment</text>
<text text-anchor="middle" x="135.91" y="-970.9" font-family="Times,serif" font-size="14.00">src/Gas.sol</text>
<polyline fill="none" stroke="black" points="46.85,-962.7 224.97,-962.7 "/>
<text text-anchor="start" x="54.85" y="-946.1" font-family="Times,serif" font-size="14.00">paymentType: PaymentType</text>
<text text-anchor="start" x="54.85" y="-929.3" font-family="Times,serif" font-size="14.00">paymentID: uint256</text>
<text text-anchor="start" x="54.85" y="-912.5" font-family="Times,serif" font-size="14.00">adminUpdated: bool</text>
<text text-anchor="start" x="54.85" y="-895.7" font-family="Times,serif" font-size="14.00">recipientName: string</text>
<text text-anchor="start" x="54.85" y="-878.9" font-family="Times,serif" font-size="14.00">recipient: address</text>
<text text-anchor="start" x="54.85" y="-862.1" font-family="Times,serif" font-size="14.00">admin: address</text>
<text text-anchor="start" x="54.85" y="-845.3" font-family="Times,serif" font-size="14.00">amount: uint256</text>
</g>
<!-- 3&#45;&gt;2 -->
<g id="edge1" class="edge">
<title>3&#45;&gt;2</title>
<path fill="none" stroke="black" stroke-dasharray="5,2" d="M117.2,-1021.11C112.3,-1044.96 107.04,-1070.57 102.22,-1094.05"/>
<polygon fill="black" stroke="black" points="98.76,-1093.47 100.18,-1103.97 105.62,-1094.87 98.76,-1093.47"/>
</g>
<!-- 3&#45;&gt;1 -->
<g id="edge3" class="edge">
<title>3&#45;&gt;1</title>
<path fill="none" stroke="black" d="M198.8,-836.73C212.9,-815.09 228.63,-790.7 245.23,-764.79"/>
<polygon fill="black" stroke="black" points="245.42,-764.5 245.28,-757.29 251.88,-754.39 252.02,-761.6 245.42,-764.5"/>
</g>
<!-- 4 -->
<g id="node4" class="node">
<title>4</title>
<polygon fill="#f2f2f2" stroke="black" points="243.33,-870.7 243.33,-987.5 386.48,-987.5 386.48,-870.7 243.33,-870.7"/>
<text text-anchor="middle" x="314.91" y="-970.9" font-family="Times,serif" font-size="14.00">&lt;&lt;Struct&gt;&gt;</text>
<text text-anchor="middle" x="314.91" y="-954.1" font-family="Times,serif" font-size="14.00">History</text>
<text text-anchor="middle" x="314.91" y="-937.3" font-family="Times,serif" font-size="14.00">src/Gas.sol</text>
<polyline fill="none" stroke="black" points="243.33,-929.1 386.48,-929.1 "/>
<text text-anchor="start" x="251.33" y="-912.5" font-family="Times,serif" font-size="14.00">lastUpdate: uint256</text>
<text text-anchor="start" x="251.33" y="-895.7" font-family="Times,serif" font-size="14.00">updatedBy: address</text>
<text text-anchor="start" x="251.33" y="-878.9" font-family="Times,serif" font-size="14.00">blockNumber: uint256</text>
</g>
<!-- 4&#45;&gt;1 -->
<g id="edge4" class="edge">
<title>4&#45;&gt;1</title>
<path fill="none" stroke="black" d="M336.2,-870.41C345.28,-842.36 356.53,-806.05 368.63,-766.05"/>
<polygon fill="black" stroke="black" points="368.68,-765.88 366.59,-758.98 372.15,-754.39 374.24,-761.29 368.68,-765.88"/>
</g>
<!-- 5 -->
<g id="node5" class="node">
<title>5</title>
<polygon fill="#f2f2f2" stroke="black" points="404.55,-845.5 404.55,-1012.7 535.26,-1012.7 535.26,-845.5 404.55,-845.5"/>
<text text-anchor="middle" x="469.91" y="-996.1" font-family="Times,serif" font-size="14.00">&lt;&lt;Struct&gt;&gt;</text>
<text text-anchor="middle" x="469.91" y="-979.3" font-family="Times,serif" font-size="14.00">ImportantStruct</text>
<text text-anchor="middle" x="469.91" y="-962.5" font-family="Times,serif" font-size="14.00">src/Gas.sol</text>
<polyline fill="none" stroke="black" points="404.55,-954.3 535.26,-954.3 "/>
<text text-anchor="start" x="412.55" y="-937.7" font-family="Times,serif" font-size="14.00">amount: uint256</text>
<text text-anchor="start" x="412.55" y="-920.9" font-family="Times,serif" font-size="14.00">valueA: uint256</text>
<text text-anchor="start" x="412.55" y="-904.1" font-family="Times,serif" font-size="14.00">bigValue: uint256</text>
<text text-anchor="start" x="412.55" y="-887.3" font-family="Times,serif" font-size="14.00">valueB: uint256</text>
<text text-anchor="start" x="412.55" y="-870.5" font-family="Times,serif" font-size="14.00">paymentStatus: bool</text>
<text text-anchor="start" x="412.55" y="-853.7" font-family="Times,serif" font-size="14.00">sender: address</text>
</g>
<!-- 5&#45;&gt;1 -->
<g id="edge5" class="edge">
<title>5&#45;&gt;1</title>
<path fill="none" stroke="black" d="M474.97,-845.36C475.5,-822.1 475.9,-795.22 476.18,-766.4"/>
<polygon fill="black" stroke="black" points="476.18,-766.39 472.23,-760.35 476.29,-754.39 480.23,-760.42 476.18,-766.39"/>
</g>
<!-- 1&#45;&gt;0 -->
<g id="edge7" class="edge">
<title>1&#45;&gt;0</title>
<path fill="none" stroke="black" d="M572.03,-754.39C581.13,-786.09 589.67,-815.81 597.01,-841.4"/>
<polygon fill="none" stroke="black" points="586.97,-844.48 605.34,-870.41 607.16,-838.68 586.97,-844.48"/>
</g>
<!-- 1&#45;&gt;2 -->
<g id="edge8" class="edge">
<title>1&#45;&gt;2</title>
<path fill="none" stroke="black" d="M137.12,-633.31C93.1,-680.19 54.44,-732.97 28.91,-790.6 -20.96,-903.16 4.36,-946.96 28.91,-1067.6 30.71,-1076.46 33.25,-1085.5 36.27,-1094.39"/>
<polygon fill="black" stroke="black" points="33.04,-1095.75 39.72,-1103.97 39.62,-1093.38 33.04,-1095.75"/>
</g>
<!-- 1&#45;&gt;3 -->
<g id="edge11" class="edge">
<title>1&#45;&gt;3</title>
<path fill="none" stroke="black" stroke-dasharray="5,2" d="M239.12,-754.39C222.75,-780.69 207.33,-805.62 193.66,-827.97"/>
<polygon fill="black" stroke="black" points="190.53,-826.37 188.3,-836.73 196.51,-830.02 190.53,-826.37"/>
</g>
<!-- 1&#45;&gt;4 -->
<g id="edge9" class="edge">
<title>1&#45;&gt;4</title>
<path fill="none" stroke="black" d="M359.38,-754.39C347.99,-794.45 337.75,-831.35 329.95,-860.74"/>
<polygon fill="black" stroke="black" points="326.56,-859.85 327.39,-870.41 333.33,-861.64 326.56,-859.85"/>
</g>
<!-- 1&#45;&gt;5 -->
<g id="edge10" class="edge">
<title>1&#45;&gt;5</title>
<path fill="none" stroke="black" d="M463.52,-754.39C463.77,-783.57 464.14,-811.07 464.63,-835.22"/>
<polygon fill="black" stroke="black" points="461.13,-835.43 464.84,-845.36 468.13,-835.28 461.13,-835.43"/>
</g>
<!-- 7 -->
<g id="node8" class="node">
<title>7</title>
<polygon fill="#f2f2f2" stroke="black" points="708.44,-791.1 708.44,-1067.1 1193.37,-1067.1 1193.37,-791.1 708.44,-791.1"/>
<text text-anchor="middle" x="950.91" y="-1050.5" font-family="Times,serif" font-size="14.00">&lt;&lt;Abstract&gt;&gt;</text>
<text text-anchor="middle" x="950.91" y="-1033.7" font-family="Times,serif" font-size="14.00">Ownable</text>
<text text-anchor="middle" x="950.91" y="-1016.9" font-family="Times,serif" font-size="14.00">src/Ownable.sol</text>
<polyline fill="none" stroke="black" points="708.44,-1008.7 1193.37,-1008.7 "/>
<text text-anchor="start" x="716.44" y="-992.1" font-family="Times,serif" font-size="14.00">Private:</text>
<text text-anchor="start" x="716.44" y="-975.3" font-family="Times,serif" font-size="14.00"> &#160;&#160;_owner: address</text>
<polyline fill="none" stroke="black" points="708.44,-967.1 1193.37,-967.1 "/>
<text text-anchor="start" x="716.44" y="-950.5" font-family="Times,serif" font-size="14.00">Internal:</text>
<text text-anchor="start" x="716.44" y="-933.7" font-family="Times,serif" font-size="14.00"> &#160;&#160;&#160;_checkOwner()</text>
<text text-anchor="start" x="716.44" y="-916.9" font-family="Times,serif" font-size="14.00"> &#160;&#160;&#160;_transferOwnership(newOwner: address)</text>
<text text-anchor="start" x="716.44" y="-900.1" font-family="Times,serif" font-size="14.00">Public:</text>
<text text-anchor="start" x="716.44" y="-883.3" font-family="Times,serif" font-size="14.00"> &#160;&#160;&#160;&lt;&lt;event&gt;&gt; OwnershipTransferred(previousOwner: address, newOwner: address)</text>
<text text-anchor="start" x="716.44" y="-866.5" font-family="Times,serif" font-size="14.00"> &#160;&#160;&#160;&lt;&lt;modifier&gt;&gt; onlyOwner()</text>
<text text-anchor="start" x="716.44" y="-849.7" font-family="Times,serif" font-size="14.00"> &#160;&#160;&#160;constructor()</text>
<text text-anchor="start" x="716.44" y="-832.9" font-family="Times,serif" font-size="14.00"> &#160;&#160;&#160;owner(): address</text>
<text text-anchor="start" x="716.44" y="-816.1" font-family="Times,serif" font-size="14.00"> &#160;&#160;&#160;renounceOwnership() &lt;&lt;onlyOwner&gt;&gt;</text>
<text text-anchor="start" x="716.44" y="-799.3" font-family="Times,serif" font-size="14.00"> &#160;&#160;&#160;transferOwnership(newOwner: address) &lt;&lt;onlyOwner&gt;&gt;</text>
</g>
<!-- 1&#45;&gt;7 -->
<g id="edge6" class="edge">
<title>1&#45;&gt;7</title>
<path fill="none" stroke="black" d="M793.08,-754.39C797.44,-759.19 801.77,-763.95 806.04,-768.66"/>
<polygon fill="none" stroke="black" points="798.38,-775.84 826.32,-790.98 813.92,-761.72 798.38,-775.84"/>
</g>
<!-- 6 -->
<g id="node7" class="node">
<title>6</title>
<polygon fill="#f2f2f2" stroke="black" points="871.95,-1120.9 871.95,-1237.7 1029.86,-1237.7 1029.86,-1120.9 871.95,-1120.9"/>
<text text-anchor="middle" x="950.91" y="-1221.1" font-family="Times,serif" font-size="14.00">&lt;&lt;Abstract&gt;&gt;</text>
<text text-anchor="middle" x="950.91" y="-1204.3" font-family="Times,serif" font-size="14.00">Context</text>
<text text-anchor="middle" x="950.91" y="-1187.5" font-family="Times,serif" font-size="14.00">src/Ownable.sol</text>
<polyline fill="none" stroke="black" points="871.95,-1179.3 1029.86,-1179.3 "/>
<text text-anchor="start" x="879.95" y="-1162.7" font-family="Times,serif" font-size="14.00">Internal:</text>
<text text-anchor="start" x="879.95" y="-1145.9" font-family="Times,serif" font-size="14.00"> &#160;&#160;&#160;_msgSender(): address</text>
<text text-anchor="start" x="879.95" y="-1129.1" font-family="Times,serif" font-size="14.00"> &#160;&#160;&#160;_msgData(): bytes</text>
</g>
<!-- 7&#45;&gt;6 -->
<g id="edge12" class="edge">
<title>7&#45;&gt;6</title>
<path fill="none" stroke="black" d="M950.91,-1067.27C950.91,-1075.21 950.91,-1083.09 950.91,-1090.76"/>
<polygon fill="none" stroke="black" points="940.41,-1090.79 950.91,-1120.79 961.41,-1090.79 940.41,-1090.79"/>
</g>
</g>
</svg>
