<?xml version="1.0" encoding="UTF-8" standalone="no"?>
<!DOCTYPE svg PUBLIC "-//W3C//DTD SVG 1.1//EN"
 "http://www.w3.org/Graphics/SVG/1.1/DTD/svg11.dtd">
<!-- Generated by graphviz version 5.0.0 (20220707.1540)
 -->
<!-- Title: StorageDiagram Pages: 1 -->
<svg width="2592pt" height="678pt"
 viewBox="0.00 0.00 2591.58 678.00" xmlns="http://www.w3.org/2000/svg" xmlns:xlink="http://www.w3.org/1999/xlink">
<g id="graph0" class="graph" transform="scale(1 1) rotate(0) translate(4 674)">
<title>StorageDiagram</title>
<polygon fill="white" stroke="transparent" points="-4,4 -4,-674 2587.58,-674 2587.58,4 -4,4"/>
<!-- 6 -->
<g id="node1" class="node">
<title>6</title>
<polygon fill="#f2f2f2" stroke="black" points="0,-233.7 0,-580.9 1272.19,-580.9 1272.19,-233.7 0,-233.7"/>
<text text-anchor="middle" x="636.1" y="-564.3" font-family="Courier New" font-size="14.00">GasContract &lt;&lt;Contract&gt;&gt;</text>
<polyline fill="none" stroke="black" points="0,-556.1 1272.19,-556.1 "/>
<text text-anchor="middle" x="24.8" y="-539.5" font-family="Courier New" font-size="14.00">slot</text>
<polyline fill="none" stroke="black" points="0,-531.3 49.61,-531.3 "/>
<text text-anchor="middle" x="24.8" y="-514.7" font-family="Courier New" font-size="14.00">0</text>
<polyline fill="none" stroke="black" points="0,-506.5 49.61,-506.5 "/>
<text text-anchor="middle" x="24.8" y="-489.9" font-family="Courier New" font-size="14.00">1</text>
<polyline fill="none" stroke="black" points="0,-481.7 49.61,-481.7 "/>
<text text-anchor="middle" x="24.8" y="-465.1" font-family="Courier New" font-size="14.00">2</text>
<polyline fill="none" stroke="black" points="0,-456.9 49.61,-456.9 "/>
<text text-anchor="middle" x="24.8" y="-440.3" font-family="Courier New" font-size="14.00">3</text>
<polyline fill="none" stroke="black" points="0,-432.1 49.61,-432.1 "/>
<text text-anchor="middle" x="24.8" y="-415.5" font-family="Courier New" font-size="14.00">4</text>
<polyline fill="none" stroke="black" points="0,-407.3 49.61,-407.3 "/>
<text text-anchor="middle" x="24.8" y="-390.7" font-family="Courier New" font-size="14.00">5</text>
<polyline fill="none" stroke="black" points="0,-382.5 49.61,-382.5 "/>
<text text-anchor="middle" x="24.8" y="-365.9" font-family="Courier New" font-size="14.00">6</text>
<polyline fill="none" stroke="black" points="0,-357.7 49.61,-357.7 "/>
<text text-anchor="middle" x="24.8" y="-341.1" font-family="Courier New" font-size="14.00">7</text>
<polyline fill="none" stroke="black" points="0,-332.9 49.61,-332.9 "/>
<text text-anchor="middle" x="24.8" y="-316.3" font-family="Courier New" font-size="14.00">8&#45;12</text>
<polyline fill="none" stroke="black" points="0,-308.1 49.61,-308.1 "/>
<text text-anchor="middle" x="24.8" y="-291.5" font-family="Courier New" font-size="14.00">13</text>
<polyline fill="none" stroke="black" points="0,-283.3 49.61,-283.3 "/>
<text text-anchor="middle" x="24.8" y="-266.7" font-family="Courier New" font-size="14.00">14</text>
<polyline fill="none" stroke="black" points="0,-258.5 49.61,-258.5 "/>
<text text-anchor="middle" x="24.8" y="-241.9" font-family="Courier New" font-size="14.00">15</text>
<polyline fill="none" stroke="black" points="49.61,-233.7 49.61,-556.1 "/>
<text text-anchor="middle" x="660.9" y="-539.5" font-family="Courier New" font-size="14.00">type: &lt;inherited contract&gt;.variable (bytes)</text>
<polyline fill="none" stroke="black" points="49.61,-531.3 1272.19,-531.3 "/>
<text text-anchor="middle" x="120.62" y="-514.7" font-family="Courier New" font-size="14.00">unallocated (9)</text>
<polyline fill="none" stroke="black" points="191.63,-506.5 191.63,-531.3 "/>
<text text-anchor="middle" x="338.25" y="-514.7" font-family="Courier New" font-size="14.00">uint8: Constants.dividendFlag (1)</text>
<polyline fill="none" stroke="black" points="484.87,-506.5 484.87,-531.3 "/>
<text text-anchor="middle" x="618.89" y="-514.7" font-family="Courier New" font-size="14.00">uint8: Constants.basicFlag (1)</text>
<polyline fill="none" stroke="black" points="752.91,-506.5 752.91,-531.3 "/>
<text text-anchor="middle" x="886.93" y="-514.7" font-family="Courier New" font-size="14.00">uint8: Constants.tradeFlag (1)</text>
<polyline fill="none" stroke="black" points="1020.95,-506.5 1020.95,-531.3 "/>
<text text-anchor="middle" x="1146.57" y="-514.7" font-family="Courier New" font-size="14.00">address: Ownable._owner (20)</text>
<polyline fill="none" stroke="black" points="49.61,-506.5 1272.19,-506.5 "/>
<text text-anchor="middle" x="660.62" y="-489.9" font-family="Courier New" font-size="14.00">uint256: totalSupply (32)</text>
<polyline fill="none" stroke="black" points="49.61,-481.7 1272.19,-481.7 "/>
<text text-anchor="middle" x="660.72" y="-465.1" font-family="Courier New" font-size="14.00">uint256: paymentCounter (32)</text>
<polyline fill="none" stroke="black" points="49.61,-456.9 1272.19,-456.9 "/>
<text text-anchor="middle" x="660.72" y="-440.3" font-family="Courier New" font-size="14.00">uint256: tradeMode (32)</text>
<polyline fill="none" stroke="black" points="49.61,-432.1 1272.19,-432.1 "/>
<text text-anchor="middle" x="660.63" y="-415.5" font-family="Courier New" font-size="14.00">mapping(address=&gt;uint256): balances (32)</text>
<polyline fill="none" stroke="black" points="49.61,-407.3 1272.19,-407.3 "/>
<text text-anchor="middle" x="149.12" y="-390.7" font-family="Courier New" font-size="14.00">unallocated (9)</text>
<polyline fill="none" stroke="black" points="248.63,-382.5 248.63,-407.3 "/>
<text text-anchor="middle" x="398.54" y="-390.7" font-family="Courier New" font-size="14.00">address: contractOwner (20)</text>
<polyline fill="none" stroke="black" points="548.46,-382.5 548.46,-407.3 "/>
<text text-anchor="middle" x="668.98" y="-390.7" font-family="Courier New" font-size="14.00">bool: wasLastOdd (1)</text>
<polyline fill="none" stroke="black" points="789.49,-382.5 789.49,-407.3 "/>
<text text-anchor="middle" x="897.4" y="-390.7" font-family="Courier New" font-size="14.00">bool: isReady (1)</text>
<polyline fill="none" stroke="black" points="1005.31,-382.5 1005.31,-407.3 "/>
<text text-anchor="middle" x="1138.43" y="-390.7" font-family="Courier New" font-size="14.00">uint8: tradePercent (1)</text>
<polyline fill="none" stroke="black" points="49.61,-382.5 1272.19,-382.5 "/>
<text text-anchor="middle" x="660.53" y="-365.9" font-family="Courier New" font-size="14.00">mapping(address=&gt;Payment[]): payments (32)</text>
<polyline fill="none" stroke="black" points="49.61,-357.7 1272.19,-357.7 "/>
<text text-anchor="middle" x="660.83" y="-341.1" font-family="Courier New" font-size="14.00">mapping(address=&gt;uint256): whitelist (32)</text>
<polyline fill="none" stroke="black" points="49.61,-332.9 1272.19,-332.9 "/>
<text text-anchor="middle" x="660.53" y="-316.3" font-family="Courier New" font-size="14.00">address[5]: administrators (160)</text>
<polyline fill="none" stroke="black" points="49.61,-308.1 1272.19,-308.1 "/>
<text text-anchor="middle" x="660.63" y="-291.5" font-family="Courier New" font-size="14.00">History[]: paymentHistory (32)</text>
<polyline fill="none" stroke="black" points="49.61,-283.3 1272.19,-283.3 "/>
<text text-anchor="middle" x="660.54" y="-266.7" font-family="Courier New" font-size="14.00">mapping(address=&gt;bool): isOddWhitelistUser (32)</text>
<polyline fill="none" stroke="black" points="49.61,-258.5 1272.19,-258.5 "/>
<text text-anchor="middle" x="660.64" y="-241.9" font-family="Courier New" font-size="14.00">mapping(address=&gt;ImportantStruct): whiteListStruct (32)</text>
</g>
<!-- 1 -->
<g id="node2" class="node">
<title>1</title>
<polygon fill="#f2f2f2" stroke="black" points="1308.19,-471.1 1308.19,-669.5 1977.09,-669.5 1977.09,-471.1 1308.19,-471.1"/>
<text text-anchor="middle" x="1642.64" y="-652.9" font-family="Courier New" font-size="14.00">Payment &lt;&lt;Struct&gt;&gt;</text>
<polyline fill="none" stroke="black" points="1308.19,-644.7 1977.09,-644.7 "/>
<text text-anchor="middle" x="1341.4" y="-628.1" font-family="Courier New" font-size="14.00">offset</text>
<polyline fill="none" stroke="black" points="1308.19,-619.9 1374.6,-619.9 "/>
<text text-anchor="middle" x="1341.4" y="-603.3" font-family="Courier New" font-size="14.00">0</text>
<polyline fill="none" stroke="black" points="1308.19,-595.1 1374.6,-595.1 "/>
<text text-anchor="middle" x="1341.4" y="-578.5" font-family="Courier New" font-size="14.00">1</text>
<polyline fill="none" stroke="black" points="1308.19,-570.3 1374.6,-570.3 "/>
<text text-anchor="middle" x="1341.4" y="-553.7" font-family="Courier New" font-size="14.00">2</text>
<polyline fill="none" stroke="black" points="1308.19,-545.5 1374.6,-545.5 "/>
<text text-anchor="middle" x="1341.4" y="-528.9" font-family="Courier New" font-size="14.00">3</text>
<polyline fill="none" stroke="black" points="1308.19,-520.7 1374.6,-520.7 "/>
<text text-anchor="middle" x="1341.4" y="-504.1" font-family="Courier New" font-size="14.00">4</text>
<polyline fill="none" stroke="black" points="1308.19,-495.9 1374.6,-495.9 "/>
<text text-anchor="middle" x="1341.4" y="-479.3" font-family="Courier New" font-size="14.00">5</text>
<polyline fill="none" stroke="black" points="1374.6,-471.1 1374.6,-644.7 "/>
<text text-anchor="middle" x="1675.84" y="-628.1" font-family="Courier New" font-size="14.00">type: variable (bytes)</text>
<polyline fill="none" stroke="black" points="1374.6,-619.9 1977.09,-619.9 "/>
<text text-anchor="middle" x="1675.61" y="-603.3" font-family="Courier New" font-size="14.00">uint256: amount (32)</text>
<polyline fill="none" stroke="black" points="1374.6,-595.1 1977.09,-595.1 "/>
<text text-anchor="middle" x="1675.72" y="-578.5" font-family="Courier New" font-size="14.00">uint256: paymentID (32)</text>
<polyline fill="none" stroke="black" points="1374.6,-570.3 1977.09,-570.3 "/>
<text text-anchor="middle" x="1449.81" y="-553.7" font-family="Courier New" font-size="14.00">unallocated (30)</text>
<polyline fill="none" stroke="black" points="1525.02,-545.5 1525.02,-570.3 "/>
<text text-anchor="middle" x="1650.64" y="-553.7" font-family="Courier New" font-size="14.00">PaymentType: paymentType (1)</text>
<polyline fill="none" stroke="black" points="1776.26,-545.5 1776.26,-570.3 "/>
<text text-anchor="middle" x="1876.67" y="-553.7" font-family="Courier New" font-size="14.00">bool: adminUpdated (1)</text>
<polyline fill="none" stroke="black" points="1374.6,-545.5 1977.09,-545.5 "/>
<text text-anchor="middle" x="1675.82" y="-528.9" font-family="Courier New" font-size="14.00">string: recipientName (32)</text>
<polyline fill="none" stroke="black" points="1374.6,-520.7 1977.09,-520.7 "/>
<text text-anchor="middle" x="1510.31" y="-504.1" font-family="Courier New" font-size="14.00">unallocated (12)</text>
<polyline fill="none" stroke="black" points="1646.02,-495.9 1646.02,-520.7 "/>
<text text-anchor="middle" x="1811.14" y="-504.1" font-family="Courier New" font-size="14.00">address: recipient (20)</text>
<polyline fill="none" stroke="black" points="1374.6,-495.9 1977.09,-495.9 "/>
<text text-anchor="middle" x="1518.81" y="-479.3" font-family="Courier New" font-size="14.00">unallocated (12)</text>
<polyline fill="none" stroke="black" points="1663.02,-471.1 1663.02,-495.9 "/>
<text text-anchor="middle" x="1819.83" y="-479.3" font-family="Courier New" font-size="14.00">address: admin (20)</text>
</g>
<!-- 6&#45;&gt;1 -->
<g id="edge1" class="edge">
<title>6:20&#45;&gt;1</title>
<path fill="none" stroke="black" d="M1272.1,-370.3C1315.61,-370.3 1276.49,-431.5 1308.19,-461.3 1309.3,-462.34 1310.42,-463.38 1311.55,-464.4"/>
<polygon fill="black" stroke="black" points="1309.3,-467.08 1319.14,-471.01 1313.9,-461.8 1309.3,-467.08"/>
</g>
<!-- 2 -->
<g id="node3" class="node">
<title>2</title>
<polygon fill="#f2f2f2" stroke="black" points="1483.42,-302.9 1483.42,-451.7 1801.87,-451.7 1801.87,-302.9 1483.42,-302.9"/>
<text text-anchor="middle" x="1642.64" y="-435.1" font-family="Courier New" font-size="14.00">address[5]: administrators &lt;&lt;Array&gt;&gt;</text>
<polyline fill="none" stroke="black" points="1483.42,-426.9 1801.87,-426.9 "/>
<text text-anchor="middle" x="1508.22" y="-410.3" font-family="Courier New" font-size="14.00">slot</text>
<polyline fill="none" stroke="black" points="1483.42,-402.1 1533.02,-402.1 "/>
<text text-anchor="middle" x="1508.22" y="-385.5" font-family="Courier New" font-size="14.00">8</text>
<polyline fill="none" stroke="black" points="1483.42,-377.3 1533.02,-377.3 "/>
<text text-anchor="middle" x="1508.22" y="-360.7" font-family="Courier New" font-size="14.00">9</text>
<polyline fill="none" stroke="black" points="1483.42,-352.5 1533.02,-352.5 "/>
<text text-anchor="middle" x="1508.22" y="-335.9" font-family="Courier New" font-size="14.00">11</text>
<polyline fill="none" stroke="black" points="1483.42,-327.7 1533.02,-327.7 "/>
<text text-anchor="middle" x="1508.22" y="-311.1" font-family="Courier New" font-size="14.00">12</text>
<polyline fill="none" stroke="black" points="1533.02,-302.9 1533.02,-426.9 "/>
<text text-anchor="middle" x="1667.14" y="-410.3" font-family="Courier New" font-size="14.00">type: variable (bytes)</text>
<polyline fill="none" stroke="black" points="1533.02,-402.1 1801.26,-402.1 "/>
<text text-anchor="middle" x="1608.23" y="-385.5" font-family="Courier New" font-size="14.00">unallocated (12)</text>
<polyline fill="none" stroke="black" points="1683.44,-377.3 1683.44,-402.1 "/>
<text text-anchor="middle" x="1742.35" y="-385.5" font-family="Courier New" font-size="14.00">address (20)</text>
<polyline fill="none" stroke="black" points="1533.02,-377.3 1801.26,-377.3 "/>
<text text-anchor="middle" x="1608.23" y="-360.7" font-family="Courier New" font-size="14.00">unallocated (12)</text>
<polyline fill="none" stroke="black" points="1683.44,-352.5 1683.44,-377.3 "/>
<text text-anchor="middle" x="1742.35" y="-360.7" font-family="Courier New" font-size="14.00">address (20)</text>
<polyline fill="none" stroke="black" points="1533.02,-352.5 1801.26,-352.5 "/>
<text text-anchor="middle" x="1608.23" y="-335.9" font-family="Courier New" font-size="14.00">unallocated (12)</text>
<polyline fill="none" stroke="black" points="1683.44,-327.7 1683.44,-352.5 "/>
<text text-anchor="middle" x="1742.35" y="-335.9" font-family="Courier New" font-size="14.00">address (20)</text>
<polyline fill="none" stroke="black" points="1533.02,-327.7 1801.26,-327.7 "/>
<text text-anchor="middle" x="1608.23" y="-311.1" font-family="Courier New" font-size="14.00">unallocated (12)</text>
<polyline fill="none" stroke="black" points="1683.44,-302.9 1683.44,-327.7 "/>
<text text-anchor="middle" x="1742.35" y="-311.1" font-family="Courier New" font-size="14.00">address (20)</text>
</g>
<!-- 6&#45;&gt;2 -->
<g id="edge2" class="edge">
<title>6:26&#45;&gt;2</title>
<path fill="none" stroke="black" d="M1272.1,-320.3C1338.34,-320.3 1410.48,-329.36 1473.3,-340.25"/>
<polygon fill="black" stroke="black" points="1472.85,-343.72 1483.3,-342.01 1474.06,-336.83 1472.85,-343.72"/>
</g>
<!-- 4 -->
<g id="node5" class="node">
<title>4</title>
<polygon fill="#f2f2f2" stroke="black" points="1357.4,-192.7 1357.4,-283.9 1927.89,-283.9 1927.89,-192.7 1357.4,-192.7"/>
<text text-anchor="middle" x="1642.64" y="-267.3" font-family="Courier New" font-size="14.00">History[]: paymentHistory &lt;&lt;Array&gt;&gt;</text>
<text text-anchor="middle" x="1642.64" y="-250.5" font-family="Courier New" font-size="14.00">0xd7b6990105719101dabeb77144f2a3385c8033acd3af97e9423a695e81ad1eb5</text>
<polyline fill="none" stroke="black" points="1357.4,-242.3 1927.89,-242.3 "/>
<text text-anchor="middle" x="1466.1" y="-225.7" font-family="Courier New" font-size="14.00">offset</text>
<polyline fill="none" stroke="black" points="1357.4,-217.5 1574.8,-217.5 "/>
<text text-anchor="middle" x="1466.1" y="-200.9" font-family="Courier New" font-size="14.00">0&#45;2</text>
<polyline fill="none" stroke="black" points="1574.8,-192.7 1574.8,-242.3 "/>
<text text-anchor="middle" x="1751.22" y="-225.7" font-family="Courier New" font-size="14.00">type: variable (bytes)</text>
<polyline fill="none" stroke="black" points="1574.8,-217.5 1927.63,-217.5 "/>
<text text-anchor="middle" x="1751.21" y="-200.9" font-family="Courier New" font-size="14.00">History (96)</text>
</g>
<!-- 6&#45;&gt;4 -->
<g id="edge3" class="edge">
<title>6:31&#45;&gt;4</title>
<path fill="none" stroke="black" d="M1272.19,-295.3C1294.27,-295.3 1330.72,-291.27 1372.33,-285.36"/>
<polygon fill="black" stroke="black" points="1373.03,-288.79 1382.43,-283.9 1372.03,-281.87 1373.03,-288.79"/>
</g>
<!-- 5 -->
<g id="node6" class="node">
<title>5</title>
<polygon fill="#f2f2f2" stroke="black" points="1337.6,-0.5 1337.6,-174.1 1947.69,-174.1 1947.69,-0.5 1337.6,-0.5"/>
<text text-anchor="middle" x="1642.64" y="-157.5" font-family="Courier New" font-size="14.00">ImportantStruct &lt;&lt;Struct&gt;&gt;</text>
<polyline fill="none" stroke="black" points="1337.6,-149.3 1947.69,-149.3 "/>
<text text-anchor="middle" x="1370.8" y="-132.7" font-family="Courier New" font-size="14.00">offset</text>
<polyline fill="none" stroke="black" points="1337.6,-124.5 1404,-124.5 "/>
<text text-anchor="middle" x="1370.8" y="-107.9" font-family="Courier New" font-size="14.00">0</text>
<polyline fill="none" stroke="black" points="1337.6,-99.7 1404,-99.7 "/>
<text text-anchor="middle" x="1370.8" y="-83.1" font-family="Courier New" font-size="14.00">1</text>
<polyline fill="none" stroke="black" points="1337.6,-74.9 1404,-74.9 "/>
<text text-anchor="middle" x="1370.8" y="-58.3" font-family="Courier New" font-size="14.00">2</text>
<polyline fill="none" stroke="black" points="1337.6,-50.1 1404,-50.1 "/>
<text text-anchor="middle" x="1370.8" y="-33.5" font-family="Courier New" font-size="14.00">3</text>
<polyline fill="none" stroke="black" points="1337.6,-25.3 1404,-25.3 "/>
<text text-anchor="middle" x="1370.8" y="-8.7" font-family="Courier New" font-size="14.00">4</text>
<polyline fill="none" stroke="black" points="1404,-0.5 1404,-149.3 "/>
<text text-anchor="middle" x="1675.84" y="-132.7" font-family="Courier New" font-size="14.00">type: variable (bytes)</text>
<polyline fill="none" stroke="black" points="1404,-124.5 1947.69,-124.5 "/>
<text text-anchor="middle" x="1675.52" y="-107.9" font-family="Courier New" font-size="14.00">uint256: amount (32)</text>
<polyline fill="none" stroke="black" points="1404,-99.7 1947.69,-99.7 "/>
<text text-anchor="middle" x="1675.52" y="-83.1" font-family="Courier New" font-size="14.00">uint256: valueA (32)</text>
<polyline fill="none" stroke="black" points="1404,-74.9 1947.69,-74.9 "/>
<text text-anchor="middle" x="1675.42" y="-58.3" font-family="Courier New" font-size="14.00">uint256: bigValue (32)</text>
<polyline fill="none" stroke="black" points="1404,-50.1 1947.69,-50.1 "/>
<text text-anchor="middle" x="1675.52" y="-33.5" font-family="Courier New" font-size="14.00">uint256: valueB (32)</text>
<polyline fill="none" stroke="black" points="1404,-25.3 1947.69,-25.3 "/>
<text text-anchor="middle" x="1479.22" y="-8.7" font-family="Courier New" font-size="14.00">unallocated (11)</text>
<polyline fill="none" stroke="black" points="1554.43,-0.5 1554.43,-25.3 "/>
<text text-anchor="middle" x="1646.44" y="-8.7" font-family="Courier New" font-size="14.00">address: sender (20)</text>
<polyline fill="none" stroke="black" points="1738.45,-0.5 1738.45,-25.3 "/>
<text text-anchor="middle" x="1843.07" y="-8.7" font-family="Courier New" font-size="14.00">bool: paymentStatus (1)</text>
</g>
<!-- 6&#45;&gt;5 -->
<g id="edge4" class="edge">
<title>6:39&#45;&gt;5</title>
<path fill="none" stroke="black" d="M1272.19,-246.3C1304.44,-246.3 1282.83,-203.22 1308.19,-183.3 1314.83,-178.08 1321.74,-173.15 1328.88,-168.49"/>
<polygon fill="black" stroke="black" points="1330.77,-171.43 1337.35,-163.13 1327.03,-165.51 1330.77,-171.43"/>
</g>
<!-- 3 -->
<g id="node4" class="node">
<title>3</title>
<polygon fill="#f2f2f2" stroke="black" points="2013.09,-134.9 2013.09,-275.7 2583.58,-275.7 2583.58,-134.9 2013.09,-134.9"/>
<text text-anchor="middle" x="2298.33" y="-259.1" font-family="Courier New" font-size="14.00">History &lt;&lt;Struct&gt;&gt;</text>
<text text-anchor="middle" x="2298.33" y="-242.3" font-family="Courier New" font-size="14.00">0xd7b6990105719101dabeb77144f2a3385c8033acd3af97e9423a695e81ad1eb5</text>
<polyline fill="none" stroke="black" points="2013.09,-234.1 2583.58,-234.1 "/>
<text text-anchor="middle" x="2082.29" y="-217.5" font-family="Courier New" font-size="14.00">offset</text>
<polyline fill="none" stroke="black" points="2013.09,-209.3 2151.5,-209.3 "/>
<text text-anchor="middle" x="2082.29" y="-192.7" font-family="Courier New" font-size="14.00">0</text>
<polyline fill="none" stroke="black" points="2013.09,-184.5 2151.5,-184.5 "/>
<text text-anchor="middle" x="2082.29" y="-167.9" font-family="Courier New" font-size="14.00">1</text>
<polyline fill="none" stroke="black" points="2013.09,-159.7 2151.5,-159.7 "/>
<text text-anchor="middle" x="2082.29" y="-143.1" font-family="Courier New" font-size="14.00">2</text>
<polyline fill="none" stroke="black" points="2151.5,-134.9 2151.5,-234.1 "/>
<text text-anchor="middle" x="2367.32" y="-217.5" font-family="Courier New" font-size="14.00">type: variable (bytes)</text>
<polyline fill="none" stroke="black" points="2151.5,-209.3 2583.15,-209.3 "/>
<text text-anchor="middle" x="2367.31" y="-192.7" font-family="Courier New" font-size="14.00">uint256: lastUpdate (32)</text>
<polyline fill="none" stroke="black" points="2151.5,-184.5 2583.15,-184.5 "/>
<text text-anchor="middle" x="2244.71" y="-167.9" font-family="Courier New" font-size="14.00">unallocated (12)</text>
<polyline fill="none" stroke="black" points="2337.92,-159.7 2337.92,-184.5 "/>
<text text-anchor="middle" x="2460.54" y="-167.9" font-family="Courier New" font-size="14.00">address: updatedBy (20)</text>
<polyline fill="none" stroke="black" points="2151.5,-159.7 2583.15,-159.7 "/>
<text text-anchor="middle" x="2367.02" y="-143.1" font-family="Courier New" font-size="14.00">uint256: blockNumber (32)</text>
</g>
<!-- 4&#45;&gt;3 -->
<g id="edge5" class="edge">
<title>4:30&#45;&gt;3</title>
<path fill="none" stroke="black" d="M1928.64,-205.3C1952.8,-205.3 1977.85,-205.3 2003,-205.3"/>
<polygon fill="black" stroke="black" points="2003.02,-208.8 2013.02,-205.3 2003.02,-201.8 2003.02,-208.8"/>
</g>
</g>
</svg>
