<?xml version="1.0" encoding="UTF-8" standalone="no"?>
<!DOCTYPE svg PUBLIC "-//W3C//DTD SVG 1.1//EN"
 "http://www.w3.org/Graphics/SVG/1.1/DTD/svg11.dtd">
<!-- Generated by graphviz version 5.0.0 (20220707.1540)
 -->
<!-- Title: StorageDiagram Pages: 1 -->
<svg width="2533pt" height="702pt"
 viewBox="0.00 0.00 2532.77 702.40" xmlns="http://www.w3.org/2000/svg" xmlns:xlink="http://www.w3.org/1999/xlink">
<g id="graph0" class="graph" transform="scale(1 1) rotate(0) translate(4 698.4)">
<title>StorageDiagram</title>
<polygon fill="white" stroke="transparent" points="-4,4 -4,-698.4 2528.77,-698.4 2528.77,4 -4,4"/>
<!-- 6 -->
<g id="node1" class="node">
<title>6</title>
<polygon fill="#f2f2f2" stroke="black" points="0,-195.9 0,-592.7 1272.19,-592.7 1272.19,-195.9 0,-195.9"/>
<text text-anchor="middle" x="636.1" y="-576.1" font-family="Courier New" font-size="14.00">GasContract &lt;&lt;Contract&gt;&gt;</text>
<polyline fill="none" stroke="black" points="0,-567.9 1272.19,-567.9 "/>
<text text-anchor="middle" x="24.8" y="-551.3" font-family="Courier New" font-size="14.00">slot</text>
<polyline fill="none" stroke="black" points="0,-543.1 49.61,-543.1 "/>
<text text-anchor="middle" x="24.8" y="-526.5" font-family="Courier New" font-size="14.00">0</text>
<polyline fill="none" stroke="black" points="0,-518.3 49.61,-518.3 "/>
<text text-anchor="middle" x="24.8" y="-501.7" font-family="Courier New" font-size="14.00">1</text>
<polyline fill="none" stroke="black" points="0,-493.5 49.61,-493.5 "/>
<text text-anchor="middle" x="24.8" y="-476.9" font-family="Courier New" font-size="14.00">2</text>
<polyline fill="none" stroke="black" points="0,-468.7 49.61,-468.7 "/>
<text text-anchor="middle" x="24.8" y="-452.1" font-family="Courier New" font-size="14.00">3</text>
<polyline fill="none" stroke="black" points="0,-443.9 49.61,-443.9 "/>
<text text-anchor="middle" x="24.8" y="-427.3" font-family="Courier New" font-size="14.00">4</text>
<polyline fill="none" stroke="black" points="0,-419.1 49.61,-419.1 "/>
<text text-anchor="middle" x="24.8" y="-402.5" font-family="Courier New" font-size="14.00">5</text>
<polyline fill="none" stroke="black" points="0,-394.3 49.61,-394.3 "/>
<text text-anchor="middle" x="24.8" y="-377.7" font-family="Courier New" font-size="14.00">6</text>
<polyline fill="none" stroke="black" points="0,-369.5 49.61,-369.5 "/>
<text text-anchor="middle" x="24.8" y="-352.9" font-family="Courier New" font-size="14.00">7</text>
<polyline fill="none" stroke="black" points="0,-344.7 49.61,-344.7 "/>
<text text-anchor="middle" x="24.8" y="-328.1" font-family="Courier New" font-size="14.00">8&#45;12</text>
<polyline fill="none" stroke="black" points="0,-319.9 49.61,-319.9 "/>
<text text-anchor="middle" x="24.8" y="-303.3" font-family="Courier New" font-size="14.00">13</text>
<polyline fill="none" stroke="black" points="0,-295.1 49.61,-295.1 "/>
<text text-anchor="middle" x="24.8" y="-278.5" font-family="Courier New" font-size="14.00">14</text>
<polyline fill="none" stroke="black" points="0,-270.3 49.61,-270.3 "/>
<text text-anchor="middle" x="24.8" y="-253.7" font-family="Courier New" font-size="14.00">15</text>
<polyline fill="none" stroke="black" points="0,-245.5 49.61,-245.5 "/>
<text text-anchor="middle" x="24.8" y="-228.9" font-family="Courier New" font-size="14.00">16</text>
<polyline fill="none" stroke="black" points="0,-220.7 49.61,-220.7 "/>
<text text-anchor="middle" x="24.8" y="-204.1" font-family="Courier New" font-size="14.00">17</text>
<polyline fill="none" stroke="black" points="49.61,-195.9 49.61,-567.9 "/>
<text text-anchor="middle" x="660.9" y="-551.3" font-family="Courier New" font-size="14.00">type: &lt;inherited contract&gt;.variable (bytes)</text>
<polyline fill="none" stroke="black" points="49.61,-543.1 1272.19,-543.1 "/>
<text text-anchor="middle" x="120.62" y="-526.5" font-family="Courier New" font-size="14.00">unallocated (9)</text>
<polyline fill="none" stroke="black" points="191.63,-518.3 191.63,-543.1 "/>
<text text-anchor="middle" x="338.25" y="-526.5" font-family="Courier New" font-size="14.00">uint8: Constants.dividendFlag (1)</text>
<polyline fill="none" stroke="black" points="484.87,-518.3 484.87,-543.1 "/>
<text text-anchor="middle" x="618.89" y="-526.5" font-family="Courier New" font-size="14.00">uint8: Constants.basicFlag (1)</text>
<polyline fill="none" stroke="black" points="752.91,-518.3 752.91,-543.1 "/>
<text text-anchor="middle" x="886.93" y="-526.5" font-family="Courier New" font-size="14.00">uint8: Constants.tradeFlag (1)</text>
<polyline fill="none" stroke="black" points="1020.95,-518.3 1020.95,-543.1 "/>
<text text-anchor="middle" x="1146.57" y="-526.5" font-family="Courier New" font-size="14.00">address: Ownable._owner (20)</text>
<polyline fill="none" stroke="black" points="49.61,-518.3 1272.19,-518.3 "/>
<text text-anchor="middle" x="660.62" y="-501.7" font-family="Courier New" font-size="14.00">uint256: totalSupply (32)</text>
<polyline fill="none" stroke="black" points="49.61,-493.5 1272.19,-493.5 "/>
<text text-anchor="middle" x="660.72" y="-476.9" font-family="Courier New" font-size="14.00">uint256: paymentCounter (32)</text>
<polyline fill="none" stroke="black" points="49.61,-468.7 1272.19,-468.7 "/>
<text text-anchor="middle" x="660.63" y="-452.1" font-family="Courier New" font-size="14.00">mapping(address=&gt;uint256): balances (32)</text>
<polyline fill="none" stroke="black" points="49.61,-443.9 1272.19,-443.9 "/>
<text text-anchor="middle" x="227.82" y="-427.3" font-family="Courier New" font-size="14.00">unallocated (11)</text>
<polyline fill="none" stroke="black" points="406.03,-419.1 406.03,-443.9 "/>
<text text-anchor="middle" x="630.95" y="-427.3" font-family="Courier New" font-size="14.00">address: contractOwner (20)</text>
<polyline fill="none" stroke="black" points="855.86,-419.1 855.86,-443.9 "/>
<text text-anchor="middle" x="1063.98" y="-427.3" font-family="Courier New" font-size="14.00">uint8: tradePercent (1)</text>
<polyline fill="none" stroke="black" points="49.61,-419.1 1272.19,-419.1 "/>
<text text-anchor="middle" x="660.72" y="-402.5" font-family="Courier New" font-size="14.00">uint256: tradeMode (32)</text>
<polyline fill="none" stroke="black" points="49.61,-394.3 1272.19,-394.3 "/>
<text text-anchor="middle" x="660.53" y="-377.7" font-family="Courier New" font-size="14.00">mapping(address=&gt;Payment[]): payments (32)</text>
<polyline fill="none" stroke="black" points="49.61,-369.5 1272.19,-369.5 "/>
<text text-anchor="middle" x="660.83" y="-352.9" font-family="Courier New" font-size="14.00">mapping(address=&gt;uint256): whitelist (32)</text>
<polyline fill="none" stroke="black" points="49.61,-344.7 1272.19,-344.7 "/>
<text text-anchor="middle" x="660.53" y="-328.1" font-family="Courier New" font-size="14.00">address[5]: administrators (160)</text>
<polyline fill="none" stroke="black" points="49.61,-319.9 1272.19,-319.9 "/>
<text text-anchor="middle" x="352.82" y="-303.3" font-family="Courier New" font-size="14.00">unallocated (31)</text>
<polyline fill="none" stroke="black" points="656.03,-295.1 656.03,-319.9 "/>
<text text-anchor="middle" x="963.94" y="-303.3" font-family="Courier New" font-size="14.00">bool: isReady (1)</text>
<polyline fill="none" stroke="black" points="49.61,-295.1 1272.19,-295.1 "/>
<text text-anchor="middle" x="660.63" y="-278.5" font-family="Courier New" font-size="14.00">History[]: paymentHistory (32)</text>
<polyline fill="none" stroke="black" points="49.61,-270.3 1272.19,-270.3 "/>
<text text-anchor="middle" x="660.42" y="-253.7" font-family="Courier New" font-size="14.00">uint256: wasLastOdd (32)</text>
<polyline fill="none" stroke="black" points="49.61,-245.5 1272.19,-245.5 "/>
<text text-anchor="middle" x="660.64" y="-228.9" font-family="Courier New" font-size="14.00">mapping(address=&gt;uint256): isOddWhitelistUser (32)</text>
<polyline fill="none" stroke="black" points="49.61,-220.7 1272.19,-220.7 "/>
<text text-anchor="middle" x="660.64" y="-204.1" font-family="Courier New" font-size="14.00">mapping(address=&gt;ImportantStruct): whiteListStruct (32)</text>
</g>
<!-- 1 -->
<g id="node2" class="node">
<title>1</title>
<polygon fill="#f2f2f2" stroke="black" points="1379.2,-470.7 1379.2,-693.9 1847.27,-693.9 1847.27,-470.7 1379.2,-470.7"/>
<text text-anchor="middle" x="1613.24" y="-677.3" font-family="Courier New" font-size="14.00">Payment &lt;&lt;Struct&gt;&gt;</text>
<polyline fill="none" stroke="black" points="1379.2,-669.1 1847.27,-669.1 "/>
<text text-anchor="middle" x="1412.41" y="-652.5" font-family="Courier New" font-size="14.00">offset</text>
<polyline fill="none" stroke="black" points="1379.2,-644.3 1445.61,-644.3 "/>
<text text-anchor="middle" x="1412.41" y="-627.7" font-family="Courier New" font-size="14.00">0</text>
<polyline fill="none" stroke="black" points="1379.2,-619.5 1445.61,-619.5 "/>
<text text-anchor="middle" x="1412.41" y="-602.9" font-family="Courier New" font-size="14.00">1</text>
<polyline fill="none" stroke="black" points="1379.2,-594.7 1445.61,-594.7 "/>
<text text-anchor="middle" x="1412.41" y="-578.1" font-family="Courier New" font-size="14.00">2</text>
<polyline fill="none" stroke="black" points="1379.2,-569.9 1445.61,-569.9 "/>
<text text-anchor="middle" x="1412.41" y="-553.3" font-family="Courier New" font-size="14.00">3</text>
<polyline fill="none" stroke="black" points="1379.2,-545.1 1445.61,-545.1 "/>
<text text-anchor="middle" x="1412.41" y="-528.5" font-family="Courier New" font-size="14.00">4</text>
<polyline fill="none" stroke="black" points="1379.2,-520.3 1445.61,-520.3 "/>
<text text-anchor="middle" x="1412.41" y="-503.7" font-family="Courier New" font-size="14.00">5</text>
<polyline fill="none" stroke="black" points="1379.2,-495.5 1445.61,-495.5 "/>
<text text-anchor="middle" x="1412.41" y="-478.9" font-family="Courier New" font-size="14.00">6</text>
<polyline fill="none" stroke="black" points="1445.61,-470.7 1445.61,-669.1 "/>
<text text-anchor="middle" x="1646.44" y="-652.5" font-family="Courier New" font-size="14.00">type: variable (bytes)</text>
<polyline fill="none" stroke="black" points="1445.61,-644.3 1847.27,-644.3 "/>
<text text-anchor="middle" x="1520.82" y="-627.7" font-family="Courier New" font-size="14.00">unallocated (31)</text>
<polyline fill="none" stroke="black" points="1596.03,-619.5 1596.03,-644.3 "/>
<text text-anchor="middle" x="1721.65" y="-627.7" font-family="Courier New" font-size="14.00">PaymentType: paymentType (1)</text>
<polyline fill="none" stroke="black" points="1445.61,-619.5 1847.27,-619.5 "/>
<text text-anchor="middle" x="1646.23" y="-602.9" font-family="Courier New" font-size="14.00">uint256: paymentID (32)</text>
<polyline fill="none" stroke="black" points="1445.61,-594.7 1847.27,-594.7 "/>
<text text-anchor="middle" x="1533.32" y="-578.1" font-family="Courier New" font-size="14.00">unallocated (31)</text>
<polyline fill="none" stroke="black" points="1621.03,-569.9 1621.03,-594.7 "/>
<text text-anchor="middle" x="1733.95" y="-578.1" font-family="Courier New" font-size="14.00">bool: adminUpdated (1)</text>
<polyline fill="none" stroke="black" points="1445.61,-569.9 1847.27,-569.9 "/>
<text text-anchor="middle" x="1646.33" y="-553.3" font-family="Courier New" font-size="14.00">string: recipientName (32)</text>
<polyline fill="none" stroke="black" points="1445.61,-545.1 1847.27,-545.1 "/>
<text text-anchor="middle" x="1531.32" y="-528.5" font-family="Courier New" font-size="14.00">unallocated (12)</text>
<polyline fill="none" stroke="black" points="1617.03,-520.3 1617.03,-545.1 "/>
<text text-anchor="middle" x="1732.15" y="-528.5" font-family="Courier New" font-size="14.00">address: recipient (20)</text>
<polyline fill="none" stroke="black" points="1445.61,-520.3 1847.27,-520.3 "/>
<text text-anchor="middle" x="1539.32" y="-503.7" font-family="Courier New" font-size="14.00">unallocated (12)</text>
<polyline fill="none" stroke="black" points="1633.03,-495.5 1633.03,-520.3 "/>
<text text-anchor="middle" x="1739.84" y="-503.7" font-family="Courier New" font-size="14.00">address: admin (20)</text>
<polyline fill="none" stroke="black" points="1445.61,-495.5 1847.27,-495.5 "/>
<text text-anchor="middle" x="1646.12" y="-478.9" font-family="Courier New" font-size="14.00">uint256: amount (32)</text>
</g>
<!-- 6&#45;&gt;1 -->
<g id="edge1" class="edge">
<title>6:18&#45;&gt;1</title>
<path fill="none" stroke="black" d="M1272.1,-382.3C1310.7,-382.3 1280.22,-434.69 1308.19,-461.3 1326.54,-478.76 1347.72,-493.8 1370.19,-506.75"/>
<polygon fill="black" stroke="black" points="1368.77,-509.97 1379.2,-511.8 1372.18,-503.86 1368.77,-509.97"/>
</g>
<!-- 2 -->
<g id="node3" class="node">
<title>2</title>
<polygon fill="#f2f2f2" stroke="black" points="1454.01,-302.9 1454.01,-451.7 1772.46,-451.7 1772.46,-302.9 1454.01,-302.9"/>
<text text-anchor="middle" x="1613.24" y="-435.1" font-family="Courier New" font-size="14.00">address[5]: administrators &lt;&lt;Array&gt;&gt;</text>
<polyline fill="none" stroke="black" points="1454.01,-426.9 1772.46,-426.9 "/>
<text text-anchor="middle" x="1478.81" y="-410.3" font-family="Courier New" font-size="14.00">slot</text>
<polyline fill="none" stroke="black" points="1454.01,-402.1 1503.62,-402.1 "/>
<text text-anchor="middle" x="1478.81" y="-385.5" font-family="Courier New" font-size="14.00">8</text>
<polyline fill="none" stroke="black" points="1454.01,-377.3 1503.62,-377.3 "/>
<text text-anchor="middle" x="1478.81" y="-360.7" font-family="Courier New" font-size="14.00">9</text>
<polyline fill="none" stroke="black" points="1454.01,-352.5 1503.62,-352.5 "/>
<text text-anchor="middle" x="1478.81" y="-335.9" font-family="Courier New" font-size="14.00">11</text>
<polyline fill="none" stroke="black" points="1454.01,-327.7 1503.62,-327.7 "/>
<text text-anchor="middle" x="1478.81" y="-311.1" font-family="Courier New" font-size="14.00">12</text>
<polyline fill="none" stroke="black" points="1503.62,-302.9 1503.62,-426.9 "/>
<text text-anchor="middle" x="1637.74" y="-410.3" font-family="Courier New" font-size="14.00">type: variable (bytes)</text>
<polyline fill="none" stroke="black" points="1503.62,-402.1 1771.85,-402.1 "/>
<text text-anchor="middle" x="1578.83" y="-385.5" font-family="Courier New" font-size="14.00">unallocated (12)</text>
<polyline fill="none" stroke="black" points="1654.04,-377.3 1654.04,-402.1 "/>
<text text-anchor="middle" x="1712.95" y="-385.5" font-family="Courier New" font-size="14.00">address (20)</text>
<polyline fill="none" stroke="black" points="1503.62,-377.3 1771.85,-377.3 "/>
<text text-anchor="middle" x="1578.83" y="-360.7" font-family="Courier New" font-size="14.00">unallocated (12)</text>
<polyline fill="none" stroke="black" points="1654.04,-352.5 1654.04,-377.3 "/>
<text text-anchor="middle" x="1712.95" y="-360.7" font-family="Courier New" font-size="14.00">address (20)</text>
<polyline fill="none" stroke="black" points="1503.62,-352.5 1771.85,-352.5 "/>
<text text-anchor="middle" x="1578.83" y="-335.9" font-family="Courier New" font-size="14.00">unallocated (12)</text>
<polyline fill="none" stroke="black" points="1654.04,-327.7 1654.04,-352.5 "/>
<text text-anchor="middle" x="1712.95" y="-335.9" font-family="Courier New" font-size="14.00">address (20)</text>
<polyline fill="none" stroke="black" points="1503.62,-327.7 1771.85,-327.7 "/>
<text text-anchor="middle" x="1578.83" y="-311.1" font-family="Courier New" font-size="14.00">unallocated (12)</text>
<polyline fill="none" stroke="black" points="1654.04,-302.9 1654.04,-327.7 "/>
<text text-anchor="middle" x="1712.95" y="-311.1" font-family="Courier New" font-size="14.00">address (20)</text>
</g>
<!-- 6&#45;&gt;2 -->
<g id="edge2" class="edge">
<title>6:24&#45;&gt;2</title>
<path fill="none" stroke="black" d="M1272.1,-332.3C1328.17,-332.3 1389,-338.39 1443.51,-346.08"/>
<polygon fill="black" stroke="black" points="1443.21,-349.57 1453.61,-347.53 1444.21,-342.65 1443.21,-349.57"/>
</g>
<!-- 4 -->
<g id="node5" class="node">
<title>4</title>
<polygon fill="#f2f2f2" stroke="black" points="1327.99,-192.7 1327.99,-283.9 1898.48,-283.9 1898.48,-192.7 1327.99,-192.7"/>
<text text-anchor="middle" x="1613.24" y="-267.3" font-family="Courier New" font-size="14.00">History[]: paymentHistory &lt;&lt;Array&gt;&gt;</text>
<text text-anchor="middle" x="1613.24" y="-250.5" font-family="Courier New" font-size="14.00">0xbb7b4a454dc3493923482f07822329ed19e8244eff582cc204f8554c3620c3fd</text>
<polyline fill="none" stroke="black" points="1327.99,-242.3 1898.48,-242.3 "/>
<text text-anchor="middle" x="1436.69" y="-225.7" font-family="Courier New" font-size="14.00">offset</text>
<polyline fill="none" stroke="black" points="1327.99,-217.5 1545.4,-217.5 "/>
<text text-anchor="middle" x="1436.69" y="-200.9" font-family="Courier New" font-size="14.00">0&#45;2</text>
<polyline fill="none" stroke="black" points="1545.4,-192.7 1545.4,-242.3 "/>
<text text-anchor="middle" x="1721.81" y="-225.7" font-family="Courier New" font-size="14.00">type: variable (bytes)</text>
<polyline fill="none" stroke="black" points="1545.4,-217.5 1898.23,-217.5 "/>
<text text-anchor="middle" x="1721.81" y="-200.9" font-family="Courier New" font-size="14.00">History (96)</text>
</g>
<!-- 6&#45;&gt;4 -->
<g id="edge3" class="edge">
<title>6:30&#45;&gt;4</title>
<path fill="none" stroke="black" d="M1272.19,-282.3C1287.08,-282.3 1302.32,-281.88 1317.67,-281.12"/>
<polygon fill="black" stroke="black" points="1317.99,-284.61 1327.78,-280.58 1317.61,-277.62 1317.99,-284.61"/>
</g>
<!-- 5 -->
<g id="node6" class="node">
<title>5</title>
<polygon fill="#f2f2f2" stroke="black" points="1308.19,-0.5 1308.19,-174.1 1918.28,-174.1 1918.28,-0.5 1308.19,-0.5"/>
<text text-anchor="middle" x="1613.24" y="-157.5" font-family="Courier New" font-size="14.00">ImportantStruct &lt;&lt;Struct&gt;&gt;</text>
<polyline fill="none" stroke="black" points="1308.19,-149.3 1918.28,-149.3 "/>
<text text-anchor="middle" x="1341.4" y="-132.7" font-family="Courier New" font-size="14.00">offset</text>
<polyline fill="none" stroke="black" points="1308.19,-124.5 1374.6,-124.5 "/>
<text text-anchor="middle" x="1341.4" y="-107.9" font-family="Courier New" font-size="14.00">0</text>
<polyline fill="none" stroke="black" points="1308.19,-99.7 1374.6,-99.7 "/>
<text text-anchor="middle" x="1341.4" y="-83.1" font-family="Courier New" font-size="14.00">1</text>
<polyline fill="none" stroke="black" points="1308.19,-74.9 1374.6,-74.9 "/>
<text text-anchor="middle" x="1341.4" y="-58.3" font-family="Courier New" font-size="14.00">2</text>
<polyline fill="none" stroke="black" points="1308.19,-50.1 1374.6,-50.1 "/>
<text text-anchor="middle" x="1341.4" y="-33.5" font-family="Courier New" font-size="14.00">3</text>
<polyline fill="none" stroke="black" points="1308.19,-25.3 1374.6,-25.3 "/>
<text text-anchor="middle" x="1341.4" y="-8.7" font-family="Courier New" font-size="14.00">4</text>
<polyline fill="none" stroke="black" points="1374.6,-0.5 1374.6,-149.3 "/>
<text text-anchor="middle" x="1646.44" y="-132.7" font-family="Courier New" font-size="14.00">type: variable (bytes)</text>
<polyline fill="none" stroke="black" points="1374.6,-124.5 1918.28,-124.5 "/>
<text text-anchor="middle" x="1646.11" y="-107.9" font-family="Courier New" font-size="14.00">uint256: amount (32)</text>
<polyline fill="none" stroke="black" points="1374.6,-99.7 1918.28,-99.7 "/>
<text text-anchor="middle" x="1646.11" y="-83.1" font-family="Courier New" font-size="14.00">uint256: valueA (32)</text>
<polyline fill="none" stroke="black" points="1374.6,-74.9 1918.28,-74.9 "/>
<text text-anchor="middle" x="1646.01" y="-58.3" font-family="Courier New" font-size="14.00">uint256: bigValue (32)</text>
<polyline fill="none" stroke="black" points="1374.6,-50.1 1918.28,-50.1 "/>
<text text-anchor="middle" x="1646.11" y="-33.5" font-family="Courier New" font-size="14.00">uint256: valueB (32)</text>
<polyline fill="none" stroke="black" points="1374.6,-25.3 1918.28,-25.3 "/>
<text text-anchor="middle" x="1449.81" y="-8.7" font-family="Courier New" font-size="14.00">unallocated (11)</text>
<polyline fill="none" stroke="black" points="1525.02,-0.5 1525.02,-25.3 "/>
<text text-anchor="middle" x="1617.04" y="-8.7" font-family="Courier New" font-size="14.00">address: sender (20)</text>
<polyline fill="none" stroke="black" points="1709.05,-0.5 1709.05,-25.3 "/>
<text text-anchor="middle" x="1813.66" y="-8.7" font-family="Courier New" font-size="14.00">bool: paymentStatus (1)</text>
</g>
<!-- 6&#45;&gt;5 -->
<g id="edge4" class="edge">
<title>6:39&#45;&gt;5</title>
<path fill="none" stroke="black" d="M1272.19,-208.3C1291.67,-208.3 1290.71,-191.89 1308.19,-183.3 1311.56,-181.65 1314.96,-180.02 1318.39,-178.4"/>
<polygon fill="black" stroke="black" points="1319.92,-181.55 1327.54,-174.18 1316.99,-175.19 1319.92,-181.55"/>
</g>
<!-- 3 -->
<g id="node4" class="node">
<title>3</title>
<polygon fill="#f2f2f2" stroke="black" points="1954.28,-134.9 1954.28,-275.7 2524.77,-275.7 2524.77,-134.9 1954.28,-134.9"/>
<text text-anchor="middle" x="2239.53" y="-259.1" font-family="Courier New" font-size="14.00">History &lt;&lt;Struct&gt;&gt;</text>
<text text-anchor="middle" x="2239.53" y="-242.3" font-family="Courier New" font-size="14.00">0xbb7b4a454dc3493923482f07822329ed19e8244eff582cc204f8554c3620c3fd</text>
<polyline fill="none" stroke="black" points="1954.28,-234.1 2524.77,-234.1 "/>
<text text-anchor="middle" x="2023.48" y="-217.5" font-family="Courier New" font-size="14.00">offset</text>
<polyline fill="none" stroke="black" points="1954.28,-209.3 2092.69,-209.3 "/>
<text text-anchor="middle" x="2023.48" y="-192.7" font-family="Courier New" font-size="14.00">0</text>
<polyline fill="none" stroke="black" points="1954.28,-184.5 2092.69,-184.5 "/>
<text text-anchor="middle" x="2023.48" y="-167.9" font-family="Courier New" font-size="14.00">1</text>
<polyline fill="none" stroke="black" points="1954.28,-159.7 2092.69,-159.7 "/>
<text text-anchor="middle" x="2023.48" y="-143.1" font-family="Courier New" font-size="14.00">2</text>
<polyline fill="none" stroke="black" points="2092.69,-134.9 2092.69,-234.1 "/>
<text text-anchor="middle" x="2308.52" y="-217.5" font-family="Courier New" font-size="14.00">type: variable (bytes)</text>
<polyline fill="none" stroke="black" points="2092.69,-209.3 2524.34,-209.3 "/>
<text text-anchor="middle" x="2308.5" y="-192.7" font-family="Courier New" font-size="14.00">uint256: lastUpdate (32)</text>
<polyline fill="none" stroke="black" points="2092.69,-184.5 2524.34,-184.5 "/>
<text text-anchor="middle" x="2185.9" y="-167.9" font-family="Courier New" font-size="14.00">unallocated (12)</text>
<polyline fill="none" stroke="black" points="2279.11,-159.7 2279.11,-184.5 "/>
<text text-anchor="middle" x="2401.73" y="-167.9" font-family="Courier New" font-size="14.00">address: updatedBy (20)</text>
<polyline fill="none" stroke="black" points="2092.69,-159.7 2524.34,-159.7 "/>
<text text-anchor="middle" x="2308.21" y="-143.1" font-family="Courier New" font-size="14.00">uint256: blockNumber (32)</text>
</g>
<!-- 4&#45;&gt;3 -->
<g id="edge5" class="edge">
<title>4:29&#45;&gt;3</title>
<path fill="none" stroke="black" d="M1899.24,-205.3C1913.71,-205.3 1928.54,-205.3 1943.51,-205.3"/>
<polygon fill="black" stroke="black" points="1943.9,-208.8 1953.9,-205.3 1943.9,-201.8 1943.9,-208.8"/>
</g>
</g>
</svg>
