<?xml version="1.0" encoding="UTF-8" standalone="no"?>
<!DOCTYPE svg PUBLIC "-//W3C//DTD SVG 1.1//EN"
 "http://www.w3.org/Graphics/SVG/1.1/DTD/svg11.dtd">
<!-- Generated by graphviz version 5.0.0 (20220707.1540)
 -->
<!-- Title: StorageDiagram Pages: 1 -->
<svg width="2842pt" height="654pt"
 viewBox="0.00 0.00 2842.02 653.60" xmlns="http://www.w3.org/2000/svg" xmlns:xlink="http://www.w3.org/1999/xlink">
<g id="graph0" class="graph" transform="scale(1 1) rotate(0) translate(4 649.6)">
<title>StorageDiagram</title>
<polygon fill="white" stroke="transparent" points="-4,4 -4,-649.6 2838.02,-649.6 2838.02,4 -4,4"/>
<!-- 6 -->
<g id="node1" class="node">
<title>6</title>
<polygon fill="#f2f2f2" stroke="black" points="0,-147.1 0,-543.9 1272.19,-543.9 1272.19,-147.1 0,-147.1"/>
<text text-anchor="middle" x="636.1" y="-527.3" font-family="Courier New" font-size="14.00">GasContract &lt;&lt;Contract&gt;&gt;</text>
<polyline fill="none" stroke="black" points="0,-519.1 1272.19,-519.1 "/>
<text text-anchor="middle" x="24.8" y="-502.5" font-family="Courier New" font-size="14.00">slot</text>
<polyline fill="none" stroke="black" points="0,-494.3 49.61,-494.3 "/>
<text text-anchor="middle" x="24.8" y="-477.7" font-family="Courier New" font-size="14.00">0</text>
<polyline fill="none" stroke="black" points="0,-469.5 49.61,-469.5 "/>
<text text-anchor="middle" x="24.8" y="-452.9" font-family="Courier New" font-size="14.00">1</text>
<polyline fill="none" stroke="black" points="0,-444.7 49.61,-444.7 "/>
<text text-anchor="middle" x="24.8" y="-428.1" font-family="Courier New" font-size="14.00">2</text>
<polyline fill="none" stroke="black" points="0,-419.9 49.61,-419.9 "/>
<text text-anchor="middle" x="24.8" y="-403.3" font-family="Courier New" font-size="14.00">3</text>
<polyline fill="none" stroke="black" points="0,-395.1 49.61,-395.1 "/>
<text text-anchor="middle" x="24.8" y="-378.5" font-family="Courier New" font-size="14.00">4</text>
<polyline fill="none" stroke="black" points="0,-370.3 49.61,-370.3 "/>
<text text-anchor="middle" x="24.8" y="-353.7" font-family="Courier New" font-size="14.00">5</text>
<polyline fill="none" stroke="black" points="0,-345.5 49.61,-345.5 "/>
<text text-anchor="middle" x="24.8" y="-328.9" font-family="Courier New" font-size="14.00">6</text>
<polyline fill="none" stroke="black" points="0,-320.7 49.61,-320.7 "/>
<text text-anchor="middle" x="24.8" y="-304.1" font-family="Courier New" font-size="14.00">7</text>
<polyline fill="none" stroke="black" points="0,-295.9 49.61,-295.9 "/>
<text text-anchor="middle" x="24.8" y="-279.3" font-family="Courier New" font-size="14.00">8&#45;12</text>
<polyline fill="none" stroke="black" points="0,-271.1 49.61,-271.1 "/>
<text text-anchor="middle" x="24.8" y="-254.5" font-family="Courier New" font-size="14.00">13</text>
<polyline fill="none" stroke="black" points="0,-246.3 49.61,-246.3 "/>
<text text-anchor="middle" x="24.8" y="-229.7" font-family="Courier New" font-size="14.00">14</text>
<polyline fill="none" stroke="black" points="0,-221.5 49.61,-221.5 "/>
<text text-anchor="middle" x="24.8" y="-204.9" font-family="Courier New" font-size="14.00">15</text>
<polyline fill="none" stroke="black" points="0,-196.7 49.61,-196.7 "/>
<text text-anchor="middle" x="24.8" y="-180.1" font-family="Courier New" font-size="14.00">16</text>
<polyline fill="none" stroke="black" points="0,-171.9 49.61,-171.9 "/>
<text text-anchor="middle" x="24.8" y="-155.3" font-family="Courier New" font-size="14.00">17</text>
<polyline fill="none" stroke="black" points="49.61,-147.1 49.61,-519.1 "/>
<text text-anchor="middle" x="660.9" y="-502.5" font-family="Courier New" font-size="14.00">type: &lt;inherited contract&gt;.variable (bytes)</text>
<polyline fill="none" stroke="black" points="49.61,-494.3 1272.19,-494.3 "/>
<text text-anchor="middle" x="120.62" y="-477.7" font-family="Courier New" font-size="14.00">unallocated (9)</text>
<polyline fill="none" stroke="black" points="191.63,-469.5 191.63,-494.3 "/>
<text text-anchor="middle" x="338.25" y="-477.7" font-family="Courier New" font-size="14.00">uint8: Constants.dividendFlag (1)</text>
<polyline fill="none" stroke="black" points="484.87,-469.5 484.87,-494.3 "/>
<text text-anchor="middle" x="618.89" y="-477.7" font-family="Courier New" font-size="14.00">uint8: Constants.basicFlag (1)</text>
<polyline fill="none" stroke="black" points="752.91,-469.5 752.91,-494.3 "/>
<text text-anchor="middle" x="886.93" y="-477.7" font-family="Courier New" font-size="14.00">uint8: Constants.tradeFlag (1)</text>
<polyline fill="none" stroke="black" points="1020.95,-469.5 1020.95,-494.3 "/>
<text text-anchor="middle" x="1146.57" y="-477.7" font-family="Courier New" font-size="14.00">address: Ownable._owner (20)</text>
<polyline fill="none" stroke="black" points="49.61,-469.5 1272.19,-469.5 "/>
<text text-anchor="middle" x="660.62" y="-452.9" font-family="Courier New" font-size="14.00">uint256: totalSupply (32)</text>
<polyline fill="none" stroke="black" points="49.61,-444.7 1272.19,-444.7 "/>
<text text-anchor="middle" x="660.72" y="-428.1" font-family="Courier New" font-size="14.00">uint256: paymentCounter (32)</text>
<polyline fill="none" stroke="black" points="49.61,-419.9 1272.19,-419.9 "/>
<text text-anchor="middle" x="660.63" y="-403.3" font-family="Courier New" font-size="14.00">mapping(address=&gt;uint256): balances (32)</text>
<polyline fill="none" stroke="black" points="49.61,-395.1 1272.19,-395.1 "/>
<text text-anchor="middle" x="227.82" y="-378.5" font-family="Courier New" font-size="14.00">unallocated (11)</text>
<polyline fill="none" stroke="black" points="406.03,-370.3 406.03,-395.1 "/>
<text text-anchor="middle" x="630.95" y="-378.5" font-family="Courier New" font-size="14.00">address: contractOwner (20)</text>
<polyline fill="none" stroke="black" points="855.86,-370.3 855.86,-395.1 "/>
<text text-anchor="middle" x="1063.98" y="-378.5" font-family="Courier New" font-size="14.00">uint8: tradePercent (1)</text>
<polyline fill="none" stroke="black" points="49.61,-370.3 1272.19,-370.3 "/>
<text text-anchor="middle" x="660.72" y="-353.7" font-family="Courier New" font-size="14.00">uint256: tradeMode (32)</text>
<polyline fill="none" stroke="black" points="49.61,-345.5 1272.19,-345.5 "/>
<text text-anchor="middle" x="660.53" y="-328.9" font-family="Courier New" font-size="14.00">mapping(address=&gt;Payment[]): payments (32)</text>
<polyline fill="none" stroke="black" points="49.61,-320.7 1272.19,-320.7 "/>
<text text-anchor="middle" x="660.83" y="-304.1" font-family="Courier New" font-size="14.00">mapping(address=&gt;uint256): whitelist (32)</text>
<polyline fill="none" stroke="black" points="49.61,-295.9 1272.19,-295.9 "/>
<text text-anchor="middle" x="660.53" y="-279.3" font-family="Courier New" font-size="14.00">address[5]: administrators (160)</text>
<polyline fill="none" stroke="black" points="49.61,-271.1 1272.19,-271.1 "/>
<text text-anchor="middle" x="352.82" y="-254.5" font-family="Courier New" font-size="14.00">unallocated (31)</text>
<polyline fill="none" stroke="black" points="656.03,-246.3 656.03,-271.1 "/>
<text text-anchor="middle" x="963.94" y="-254.5" font-family="Courier New" font-size="14.00">bool: isReady (1)</text>
<polyline fill="none" stroke="black" points="49.61,-246.3 1272.19,-246.3 "/>
<text text-anchor="middle" x="660.63" y="-229.7" font-family="Courier New" font-size="14.00">History[]: paymentHistory (32)</text>
<polyline fill="none" stroke="black" points="49.61,-221.5 1272.19,-221.5 "/>
<text text-anchor="middle" x="660.42" y="-204.9" font-family="Courier New" font-size="14.00">uint256: wasLastOdd (32)</text>
<polyline fill="none" stroke="black" points="49.61,-196.7 1272.19,-196.7 "/>
<text text-anchor="middle" x="660.64" y="-180.1" font-family="Courier New" font-size="14.00">mapping(address=&gt;uint256): isOddWhitelistUser (32)</text>
<polyline fill="none" stroke="black" points="49.61,-171.9 1272.19,-171.9 "/>
<text text-anchor="middle" x="660.64" y="-155.3" font-family="Courier New" font-size="14.00">mapping(address=&gt;ImportantStruct): whiteListStruct (32)</text>
</g>
<!-- 1 -->
<g id="node2" class="node">
<title>1</title>
<polygon fill="#f2f2f2" stroke="black" points="1533.82,-421.9 1533.82,-645.1 2001.89,-645.1 2001.89,-421.9 1533.82,-421.9"/>
<text text-anchor="middle" x="1767.86" y="-628.5" font-family="Courier New" font-size="14.00">Payment &lt;&lt;Struct&gt;&gt;</text>
<polyline fill="none" stroke="black" points="1533.82,-620.3 2001.89,-620.3 "/>
<text text-anchor="middle" x="1567.03" y="-603.7" font-family="Courier New" font-size="14.00">offset</text>
<polyline fill="none" stroke="black" points="1533.82,-595.5 1600.23,-595.5 "/>
<text text-anchor="middle" x="1567.03" y="-578.9" font-family="Courier New" font-size="14.00">0</text>
<polyline fill="none" stroke="black" points="1533.82,-570.7 1600.23,-570.7 "/>
<text text-anchor="middle" x="1567.03" y="-554.1" font-family="Courier New" font-size="14.00">1</text>
<polyline fill="none" stroke="black" points="1533.82,-545.9 1600.23,-545.9 "/>
<text text-anchor="middle" x="1567.03" y="-529.3" font-family="Courier New" font-size="14.00">2</text>
<polyline fill="none" stroke="black" points="1533.82,-521.1 1600.23,-521.1 "/>
<text text-anchor="middle" x="1567.03" y="-504.5" font-family="Courier New" font-size="14.00">3</text>
<polyline fill="none" stroke="black" points="1533.82,-496.3 1600.23,-496.3 "/>
<text text-anchor="middle" x="1567.03" y="-479.7" font-family="Courier New" font-size="14.00">4</text>
<polyline fill="none" stroke="black" points="1533.82,-471.5 1600.23,-471.5 "/>
<text text-anchor="middle" x="1567.03" y="-454.9" font-family="Courier New" font-size="14.00">5</text>
<polyline fill="none" stroke="black" points="1533.82,-446.7 1600.23,-446.7 "/>
<text text-anchor="middle" x="1567.03" y="-430.1" font-family="Courier New" font-size="14.00">6</text>
<polyline fill="none" stroke="black" points="1600.23,-421.9 1600.23,-620.3 "/>
<text text-anchor="middle" x="1801.06" y="-603.7" font-family="Courier New" font-size="14.00">type: variable (bytes)</text>
<polyline fill="none" stroke="black" points="1600.23,-595.5 2001.89,-595.5 "/>
<text text-anchor="middle" x="1675.44" y="-578.9" font-family="Courier New" font-size="14.00">unallocated (31)</text>
<polyline fill="none" stroke="black" points="1750.65,-570.7 1750.65,-595.5 "/>
<text text-anchor="middle" x="1876.27" y="-578.9" font-family="Courier New" font-size="14.00">PaymentType: paymentType (1)</text>
<polyline fill="none" stroke="black" points="1600.23,-570.7 2001.89,-570.7 "/>
<text text-anchor="middle" x="1800.85" y="-554.1" font-family="Courier New" font-size="14.00">uint256: paymentID (32)</text>
<polyline fill="none" stroke="black" points="1600.23,-545.9 2001.89,-545.9 "/>
<text text-anchor="middle" x="1687.94" y="-529.3" font-family="Courier New" font-size="14.00">unallocated (31)</text>
<polyline fill="none" stroke="black" points="1775.65,-521.1 1775.65,-545.9 "/>
<text text-anchor="middle" x="1888.57" y="-529.3" font-family="Courier New" font-size="14.00">bool: adminUpdated (1)</text>
<polyline fill="none" stroke="black" points="1600.23,-521.1 2001.89,-521.1 "/>
<text text-anchor="middle" x="1800.95" y="-504.5" font-family="Courier New" font-size="14.00">string: recipientName (32)</text>
<polyline fill="none" stroke="black" points="1600.23,-496.3 2001.89,-496.3 "/>
<text text-anchor="middle" x="1685.94" y="-479.7" font-family="Courier New" font-size="14.00">unallocated (12)</text>
<polyline fill="none" stroke="black" points="1771.65,-471.5 1771.65,-496.3 "/>
<text text-anchor="middle" x="1886.77" y="-479.7" font-family="Courier New" font-size="14.00">address: recipient (20)</text>
<polyline fill="none" stroke="black" points="1600.23,-471.5 2001.89,-471.5 "/>
<text text-anchor="middle" x="1693.94" y="-454.9" font-family="Courier New" font-size="14.00">unallocated (12)</text>
<polyline fill="none" stroke="black" points="1787.65,-446.7 1787.65,-471.5 "/>
<text text-anchor="middle" x="1894.47" y="-454.9" font-family="Courier New" font-size="14.00">address: admin (20)</text>
<polyline fill="none" stroke="black" points="1600.23,-446.7 2001.89,-446.7 "/>
<text text-anchor="middle" x="1800.75" y="-430.1" font-family="Courier New" font-size="14.00">uint256: amount (32)</text>
</g>
<!-- 6&#45;&gt;1 -->
<g id="edge1" class="edge">
<title>6:18&#45;&gt;1</title>
<path fill="none" stroke="black" d="M1272.1,-333.5C1310.7,-333.5 1278.67,-387.63 1308.19,-412.5 1368.47,-463.28 1447.78,-493 1523.47,-510.32"/>
<polygon fill="black" stroke="black" points="1523.12,-513.82 1533.64,-512.57 1524.64,-506.99 1523.12,-513.82"/>
</g>
<!-- 2 -->
<g id="node3" class="node">
<title>2</title>
<polygon fill="#f2f2f2" stroke="black" points="1608.63,-254.1 1608.63,-402.9 1927.08,-402.9 1927.08,-254.1 1608.63,-254.1"/>
<text text-anchor="middle" x="1767.86" y="-386.3" font-family="Courier New" font-size="14.00">address[5]: administrators &lt;&lt;Array&gt;&gt;</text>
<polyline fill="none" stroke="black" points="1608.63,-378.1 1927.08,-378.1 "/>
<text text-anchor="middle" x="1633.44" y="-361.5" font-family="Courier New" font-size="14.00">slot</text>
<polyline fill="none" stroke="black" points="1608.63,-353.3 1658.24,-353.3 "/>
<text text-anchor="middle" x="1633.44" y="-336.7" font-family="Courier New" font-size="14.00">8</text>
<polyline fill="none" stroke="black" points="1608.63,-328.5 1658.24,-328.5 "/>
<text text-anchor="middle" x="1633.44" y="-311.9" font-family="Courier New" font-size="14.00">9</text>
<polyline fill="none" stroke="black" points="1608.63,-303.7 1658.24,-303.7 "/>
<text text-anchor="middle" x="1633.44" y="-287.1" font-family="Courier New" font-size="14.00">11</text>
<polyline fill="none" stroke="black" points="1608.63,-278.9 1658.24,-278.9 "/>
<text text-anchor="middle" x="1633.44" y="-262.3" font-family="Courier New" font-size="14.00">12</text>
<polyline fill="none" stroke="black" points="1658.24,-254.1 1658.24,-378.1 "/>
<text text-anchor="middle" x="1792.36" y="-361.5" font-family="Courier New" font-size="14.00">type: variable (bytes)</text>
<polyline fill="none" stroke="black" points="1658.24,-353.3 1926.48,-353.3 "/>
<text text-anchor="middle" x="1733.45" y="-336.7" font-family="Courier New" font-size="14.00">unallocated (12)</text>
<polyline fill="none" stroke="black" points="1808.66,-328.5 1808.66,-353.3 "/>
<text text-anchor="middle" x="1867.57" y="-336.7" font-family="Courier New" font-size="14.00">address (20)</text>
<polyline fill="none" stroke="black" points="1658.24,-328.5 1926.48,-328.5 "/>
<text text-anchor="middle" x="1733.45" y="-311.9" font-family="Courier New" font-size="14.00">unallocated (12)</text>
<polyline fill="none" stroke="black" points="1808.66,-303.7 1808.66,-328.5 "/>
<text text-anchor="middle" x="1867.57" y="-311.9" font-family="Courier New" font-size="14.00">address (20)</text>
<polyline fill="none" stroke="black" points="1658.24,-303.7 1926.48,-303.7 "/>
<text text-anchor="middle" x="1733.45" y="-287.1" font-family="Courier New" font-size="14.00">unallocated (12)</text>
<polyline fill="none" stroke="black" points="1808.66,-278.9 1808.66,-303.7 "/>
<text text-anchor="middle" x="1867.57" y="-287.1" font-family="Courier New" font-size="14.00">address (20)</text>
<polyline fill="none" stroke="black" points="1658.24,-278.9 1926.48,-278.9 "/>
<text text-anchor="middle" x="1733.45" y="-262.3" font-family="Courier New" font-size="14.00">unallocated (12)</text>
<polyline fill="none" stroke="black" points="1808.66,-254.1 1808.66,-278.9 "/>
<text text-anchor="middle" x="1867.57" y="-262.3" font-family="Courier New" font-size="14.00">address (20)</text>
</g>
<!-- 6&#45;&gt;2 -->
<g id="edge2" class="edge">
<title>6:24&#45;&gt;2</title>
<path fill="none" stroke="black" d="M1272.1,-283.5C1381.01,-283.5 1502.87,-294.45 1598.39,-305.55"/>
<polygon fill="black" stroke="black" points="1598.09,-309.04 1608.43,-306.72 1598.91,-302.08 1598.09,-309.04"/>
</g>
<!-- 4 -->
<g id="node5" class="node">
<title>4</title>
<polygon fill="#f2f2f2" stroke="black" points="1482.61,-143.9 1482.61,-235.1 2053.1,-235.1 2053.1,-143.9 1482.61,-143.9"/>
<text text-anchor="middle" x="1767.86" y="-218.5" font-family="Courier New" font-size="14.00">History[]: paymentHistory &lt;&lt;Array&gt;&gt;</text>
<text text-anchor="middle" x="1767.86" y="-201.7" font-family="Courier New" font-size="14.00">0xbb7b4a454dc3493923482f07822329ed19e8244eff582cc204f8554c3620c3fd</text>
<polyline fill="none" stroke="black" points="1482.61,-193.5 2053.1,-193.5 "/>
<text text-anchor="middle" x="1591.32" y="-176.9" font-family="Courier New" font-size="14.00">offset</text>
<polyline fill="none" stroke="black" points="1482.61,-168.7 1700.02,-168.7 "/>
<text text-anchor="middle" x="1591.32" y="-152.1" font-family="Courier New" font-size="14.00">0&#45;2</text>
<polyline fill="none" stroke="black" points="1700.02,-143.9 1700.02,-193.5 "/>
<text text-anchor="middle" x="1876.44" y="-176.9" font-family="Courier New" font-size="14.00">type: variable (bytes)</text>
<polyline fill="none" stroke="black" points="1700.02,-168.7 2052.85,-168.7 "/>
<text text-anchor="middle" x="1876.43" y="-152.1" font-family="Courier New" font-size="14.00">History (96)</text>
</g>
<!-- 6&#45;&gt;4 -->
<g id="edge3" class="edge">
<title>6:30&#45;&gt;4</title>
<path fill="none" stroke="black" d="M1272.19,-233.5C1337.08,-233.5 1406.57,-229.7 1472.35,-224.33"/>
<polygon fill="black" stroke="black" points="1472.77,-227.8 1482.45,-223.49 1472.19,-220.83 1472.77,-227.8"/>
</g>
<!-- 5 -->
<g id="node6" class="node">
<title>5</title>
<polygon fill="#f2f2f2" stroke="black" points="1308.19,-0.5 1308.19,-124.5 2227.53,-124.5 2227.53,-0.5 1308.19,-0.5"/>
<text text-anchor="middle" x="1767.86" y="-107.9" font-family="Courier New" font-size="14.00">ImportantStruct &lt;&lt;Struct&gt;&gt;</text>
<polyline fill="none" stroke="black" points="1308.19,-99.7 2227.53,-99.7 "/>
<text text-anchor="middle" x="1341.4" y="-83.1" font-family="Courier New" font-size="14.00">offset</text>
<polyline fill="none" stroke="black" points="1308.19,-74.9 1374.6,-74.9 "/>
<text text-anchor="middle" x="1341.4" y="-58.3" font-family="Courier New" font-size="14.00">0</text>
<polyline fill="none" stroke="black" points="1308.19,-50.1 1374.6,-50.1 "/>
<text text-anchor="middle" x="1341.4" y="-33.5" font-family="Courier New" font-size="14.00">1</text>
<polyline fill="none" stroke="black" points="1308.19,-25.3 1374.6,-25.3 "/>
<text text-anchor="middle" x="1341.4" y="-8.7" font-family="Courier New" font-size="14.00">2</text>
<polyline fill="none" stroke="black" points="1374.6,-0.5 1374.6,-99.7 "/>
<text text-anchor="middle" x="1801.06" y="-83.1" font-family="Courier New" font-size="14.00">type: variable (bytes)</text>
<polyline fill="none" stroke="black" points="1374.6,-74.9 2227.53,-74.9 "/>
<text text-anchor="middle" x="1800.61" y="-58.3" font-family="Courier New" font-size="14.00">uint256: amount (32)</text>
<polyline fill="none" stroke="black" points="1374.6,-50.1 2227.53,-50.1 "/>
<text text-anchor="middle" x="1801.01" y="-33.5" font-family="Courier New" font-size="14.00">uint256: bigValue (32)</text>
<polyline fill="none" stroke="black" points="1374.6,-25.3 2227.53,-25.3 "/>
<text text-anchor="middle" x="1445.61" y="-8.7" font-family="Courier New" font-size="14.00">unallocated (9)</text>
<polyline fill="none" stroke="black" points="1516.62,-0.5 1516.62,-25.3 "/>
<text text-anchor="middle" x="1608.63" y="-8.7" font-family="Courier New" font-size="14.00">address: sender (20)</text>
<polyline fill="none" stroke="black" points="1700.65,-0.5 1700.65,-25.3 "/>
<text text-anchor="middle" x="1805.26" y="-8.7" font-family="Courier New" font-size="14.00">bool: paymentStatus (1)</text>
<polyline fill="none" stroke="black" points="1909.88,-0.5 1909.88,-25.3 "/>
<text text-anchor="middle" x="1989.29" y="-8.7" font-family="Courier New" font-size="14.00">uint8: valueB (1)</text>
<polyline fill="none" stroke="black" points="2068.7,-0.5 2068.7,-25.3 "/>
<text text-anchor="middle" x="2148.11" y="-8.7" font-family="Courier New" font-size="14.00">uint8: valueA (1)</text>
</g>
<!-- 6&#45;&gt;5 -->
<g id="edge4" class="edge">
<title>6:39&#45;&gt;5</title>
<path fill="none" stroke="black" d="M1272.19,-159.5C1291.67,-159.5 1290.11,-141.75 1308.19,-134.5 1313.76,-132.27 1319.4,-130.1 1325.09,-128"/>
<polygon fill="black" stroke="black" points="1326.5,-131.22 1334.72,-124.53 1324.12,-124.63 1326.5,-131.22"/>
</g>
<!-- 3 -->
<g id="node4" class="node">
<title>3</title>
<polygon fill="#f2f2f2" stroke="black" points="2263.53,-86.1 2263.53,-226.9 2834.02,-226.9 2834.02,-86.1 2263.53,-86.1"/>
<text text-anchor="middle" x="2548.77" y="-210.3" font-family="Courier New" font-size="14.00">History &lt;&lt;Struct&gt;&gt;</text>
<text text-anchor="middle" x="2548.77" y="-193.5" font-family="Courier New" font-size="14.00">0xbb7b4a454dc3493923482f07822329ed19e8244eff582cc204f8554c3620c3fd</text>
<polyline fill="none" stroke="black" points="2263.53,-185.3 2834.02,-185.3 "/>
<text text-anchor="middle" x="2332.73" y="-168.7" font-family="Courier New" font-size="14.00">offset</text>
<polyline fill="none" stroke="black" points="2263.53,-160.5 2401.93,-160.5 "/>
<text text-anchor="middle" x="2332.73" y="-143.9" font-family="Courier New" font-size="14.00">0</text>
<polyline fill="none" stroke="black" points="2263.53,-135.7 2401.93,-135.7 "/>
<text text-anchor="middle" x="2332.73" y="-119.1" font-family="Courier New" font-size="14.00">1</text>
<polyline fill="none" stroke="black" points="2263.53,-110.9 2401.93,-110.9 "/>
<text text-anchor="middle" x="2332.73" y="-94.3" font-family="Courier New" font-size="14.00">2</text>
<polyline fill="none" stroke="black" points="2401.93,-86.1 2401.93,-185.3 "/>
<text text-anchor="middle" x="2617.76" y="-168.7" font-family="Courier New" font-size="14.00">type: variable (bytes)</text>
<polyline fill="none" stroke="black" points="2401.93,-160.5 2833.59,-160.5 "/>
<text text-anchor="middle" x="2617.75" y="-143.9" font-family="Courier New" font-size="14.00">uint256: lastUpdate (32)</text>
<polyline fill="none" stroke="black" points="2401.93,-135.7 2833.59,-135.7 "/>
<text text-anchor="middle" x="2495.14" y="-119.1" font-family="Courier New" font-size="14.00">unallocated (12)</text>
<polyline fill="none" stroke="black" points="2588.36,-110.9 2588.36,-135.7 "/>
<text text-anchor="middle" x="2710.97" y="-119.1" font-family="Courier New" font-size="14.00">address: updatedBy (20)</text>
<polyline fill="none" stroke="black" points="2401.93,-110.9 2833.59,-110.9 "/>
<text text-anchor="middle" x="2617.45" y="-94.3" font-family="Courier New" font-size="14.00">uint256: blockNumber (32)</text>
</g>
<!-- 4&#45;&gt;3 -->
<g id="edge5" class="edge">
<title>4:29&#45;&gt;3</title>
<path fill="none" stroke="black" d="M2053.86,-156.5C2118.39,-156.5 2187.67,-156.5 2253.33,-156.5"/>
<polygon fill="black" stroke="black" points="2253.41,-160 2263.41,-156.5 2253.41,-153 2253.41,-160"/>
</g>
</g>
</svg>
